ISO-10303-21;
HEADER;
FILE_DESCRIPTION(('CATIA V5 STEP Exchange'),'2;1');

FILE_NAME('C:\\\X2\041E0440043B043E0432\X0\\\Work\\_Accessoires\\Servomotor_EMAX_ES09MD_2.3.stp','2022-05-20T15:25:23+00:00',('none'),('none'),'CATIA Version 5-6 Release 2018 SP6','CATIA V5 STEP AP203','none');

FILE_SCHEMA(('CONFIG_CONTROL_DESIGN'));

ENDSEC;
DATA;
#5=PRODUCT('Servomotor_ES09MD_2.3','','Servomotor_ES09MD\X2\000D\X0\\X2\000A\X0\Voltage: 4.8-6.0V\X2\000D\X0\\X2\000A\X0\Torque: 2.3/2.6kg.cm\X2\000D\X0\\X2\000A\X0\Speed: 0.10/0.08s/60\X2\000D\X0\\X2\000A\X0\Weight: 14.8g\X2\000D\X0\\X2\000A\X0\Dimensions: 23x12x24.5mm',(#2)) ;
#1=APPLICATION_CONTEXT('configuration controlled 3D design of mechanical parts and assemblies') ;
#14=PRODUCT_DEFINITION('',' ',#6,#3) ;
#16=SECURITY_CLASSIFICATION(' ',' ',#15) ;
#15=SECURITY_CLASSIFICATION_LEVEL('unclassified') ;
#46=CARTESIAN_POINT(' ',(0.,0.,0.)) ;
#51=CARTESIAN_POINT('Axis2P3D Location',(-9.25,0.,14.6)) ;
#56=CARTESIAN_POINT('Line Origine',(-9.25,-0.5,14.6)) ;
#60=CARTESIAN_POINT('Vertex',(-9.25,-0.5,11.6)) ;
#62=CARTESIAN_POINT('Vertex',(-9.25,-0.5,17.6)) ;
#65=CARTESIAN_POINT('Axis2P3D Location',(-9.25,0.,11.6)) ;
#69=CARTESIAN_POINT('Vertex',(-9.25,0.5,11.6)) ;
#72=CARTESIAN_POINT('Line Origine',(-9.25,0.5,14.6)) ;
#76=CARTESIAN_POINT('Vertex',(-9.25,0.5,17.6)) ;
#79=CARTESIAN_POINT('Axis2P3D Location',(-9.25,0.,17.6)) ;
#91=CARTESIAN_POINT('Axis2P3D Location',(-9.25,0.,11.6)) ;
#96=CARTESIAN_POINT('Axis2P3D Location',(-9.25,0.,17.6)) ;
#108=CARTESIAN_POINT('Axis2P3D Location',(-23.85,0.,17.6)) ;
#118=CARTESIAN_POINT('Axis2P3D Location',(-9.25,-1.,14.6)) ;
#123=CARTESIAN_POINT('Line Origine',(-9.25,-1.5,14.6)) ;
#127=CARTESIAN_POINT('Vertex',(-9.25,-1.5,11.6)) ;
#129=CARTESIAN_POINT('Vertex',(-9.25,-1.5,17.6)) ;
#132=CARTESIAN_POINT('Axis2P3D Location',(-9.25,-1.,11.6)) ;
#136=CARTESIAN_POINT('Vertex',(-9.25,-0.5,11.6)) ;
#139=CARTESIAN_POINT('Line Origine',(-9.25,-0.5,14.6)) ;
#143=CARTESIAN_POINT('Vertex',(-9.25,-0.5,17.6)) ;
#146=CARTESIAN_POINT('Axis2P3D Location',(-9.25,-1.,17.6)) ;
#158=CARTESIAN_POINT('Axis2P3D Location',(-9.25,-1.,11.6)) ;
#163=CARTESIAN_POINT('Axis2P3D Location',(-9.25,-1.,17.6)) ;
#180=CARTESIAN_POINT('Axis2P3D Location',(-9.25,1.,14.6)) ;
#185=CARTESIAN_POINT('Line Origine',(-9.25,0.5,14.6)) ;
#189=CARTESIAN_POINT('Vertex',(-9.25,0.5,11.6)) ;
#191=CARTESIAN_POINT('Vertex',(-9.25,0.5,17.6)) ;
#194=CARTESIAN_POINT('Axis2P3D Location',(-9.25,1.,11.6)) ;
#198=CARTESIAN_POINT('Vertex',(-9.25,1.5,11.6)) ;
#201=CARTESIAN_POINT('Line Origine',(-9.25,1.5,14.6)) ;
#205=CARTESIAN_POINT('Vertex',(-9.25,1.5,17.6)) ;
#208=CARTESIAN_POINT('Axis2P3D Location',(-9.25,1.,17.6)) ;
#220=CARTESIAN_POINT('Axis2P3D Location',(-9.25,1.,11.6)) ;
#225=CARTESIAN_POINT('Axis2P3D Location',(-9.25,1.,17.6)) ;
#242=CARTESIAN_POINT('Axis2P3D Location',(-12.25,0.,11.6)) ;
#247=CARTESIAN_POINT('Line Origine',(-3.65,-5.4,11.6)) ;
#251=CARTESIAN_POINT('Vertex',(-12.25,-5.4,11.6)) ;
#253=CARTESIAN_POINT('Vertex',(4.95,-5.4,11.6)) ;
#256=CARTESIAN_POINT('Line Origine',(4.95,0.,11.6)) ;
#260=CARTESIAN_POINT('Vertex',(4.95,5.4,11.6)) ;
#263=CARTESIAN_POINT('Line Origine',(-3.65,5.4,11.6)) ;
#267=CARTESIAN_POINT('Vertex',(-12.25,5.4,11.6)) ;
#270=CARTESIAN_POINT('Line Origine',(-12.25,0.,11.6)) ;
#294=CARTESIAN_POINT('Axis2P3D Location',(14.4,-8.60422844084E-016,6.6)) ;
#299=CARTESIAN_POINT('Line Origine',(15.3,0.9,6.6)) ;
#303=CARTESIAN_POINT('Vertex',(15.15,0.75,6.6)) ;
#305=CARTESIAN_POINT('Vertex',(15.45,1.05,6.6)) ;
#308=CARTESIAN_POINT('Axis2P3D Location',(15.45,1.11022302463E-016,6.6)) ;
#312=CARTESIAN_POINT('Vertex',(15.45,-1.05,6.6000001636)) ;
#315=CARTESIAN_POINT('Line Origine',(15.3,-0.9,6.60000014023)) ;
#319=CARTESIAN_POINT('Vertex',(15.15,-0.75,6.6)) ;
#322=CARTESIAN_POINT('Axis2P3D Location',(15.15,-1.66533453694E-016,6.6)) ;
#334=CARTESIAN_POINT('Axis2P3D Location',(14.4,1.35863542638E-012,6.6)) ;
#339=CARTESIAN_POINT('Axis2P3D Location',(15.45,-5.43454170557E-013,6.6)) ;
#344=CARTESIAN_POINT('Axis2P3D Location',(15.15,-2.30019218188E-024,6.6)) ;
#356=CARTESIAN_POINT('Axis2P3D Location',(15.45,-3.3,0.)) ;
#361=CARTESIAN_POINT('Axis2P3D Location',(15.45,1.14130926931E-013,6.6)) ;
#365=CARTESIAN_POINT('Vertex',(15.45,-2.2,6.60000056979)) ;
#367=CARTESIAN_POINT('Vertex',(15.45,2.2,6.6)) ;
#370=CARTESIAN_POINT('Axis2P3D Location',(15.45,3.99680288865E-014,6.6)) ;
#384=CARTESIAN_POINT('Axis2P3D Location',(13.95,0.,6.6)) ;
#389=CARTESIAN_POINT('Line Origine',(13.95,0.75,6.6)) ;
#393=CARTESIAN_POINT('Vertex',(12.45,0.75,6.6)) ;
#396=CARTESIAN_POINT('Axis2P3D Location',(12.45,0.,6.6)) ;
#400=CARTESIAN_POINT('Vertex',(12.45,-0.75,6.6)) ;
#403=CARTESIAN_POINT('Line Origine',(13.95,-0.75,6.6)) ;
#415=CARTESIAN_POINT('Axis2P3D Location',(12.45,0.,6.6)) ;
#427=CARTESIAN_POINT('Axis2P3D Location',(17.65,-3.03460960064E-015,6.6)) ;
#432=CARTESIAN_POINT('Line Origine',(15.3,2.35,6.6)) ;
#436=CARTESIAN_POINT('Vertex',(15.15,2.5,6.6)) ;
#439=CARTESIAN_POINT('Axis2P3D Location',(15.15,6.66133814775E-016,6.6)) ;
#443=CARTESIAN_POINT('Vertex',(15.15,-2.5,6.6)) ;
#446=CARTESIAN_POINT('Line Origine',(15.3,-2.35,6.6)) ;
#458=CARTESIAN_POINT('Axis2P3D Location',(17.65,1.31887093839E-012,6.6)) ;
#463=CARTESIAN_POINT('Axis2P3D Location',(15.15,-4.44089210695E-016,6.6)) ;
#475=CARTESIAN_POINT('Axis2P3D Location',(13.95,0.,6.6)) ;
#480=CARTESIAN_POINT('Line Origine',(13.95,-2.5,6.6)) ;
#484=CARTESIAN_POINT('Vertex',(12.45,-2.5,6.6)) ;
#487=CARTESIAN_POINT('Axis2P3D Location',(12.45,0.,6.6)) ;
#491=CARTESIAN_POINT('Vertex',(12.45,2.5,6.6)) ;
#494=CARTESIAN_POINT('Line Origine',(13.95,2.5,6.6)) ;
#506=CARTESIAN_POINT('Axis2P3D Location',(12.45,0.,6.6)) ;
#518=CARTESIAN_POINT('Axis2P3D Location',(12.45,-3.5,0.)) ;
#528=CARTESIAN_POINT('Axis2P3D Location',(12.35,0.,6.6)) ;
#533=CARTESIAN_POINT('Line Origine',(12.35,4.,6.6)) ;
#537=CARTESIAN_POINT('Vertex',(12.25,4.,6.6)) ;
#539=CARTESIAN_POINT('Vertex',(12.45,4.,6.6)) ;
#542=CARTESIAN_POINT('Axis2P3D Location',(12.25,0.,6.6)) ;
#546=CARTESIAN_POINT('Vertex',(12.25,-4.,6.6)) ;
#549=CARTESIAN_POINT('Line Origine',(12.35,-4.,6.6)) ;
#553=CARTESIAN_POINT('Vertex',(12.45,-4.,6.6)) ;
#556=CARTESIAN_POINT('Axis2P3D Location',(12.45,0.,6.6)) ;
#568=CARTESIAN_POINT('Axis2P3D Location',(12.25,0.,6.6)) ;
#573=CARTESIAN_POINT('Axis2P3D Location',(12.45,0.,6.6)) ;
#585=CARTESIAN_POINT('Axis2P3D Location',(12.25,0.,11.6)) ;
#590=CARTESIAN_POINT('Line Origine',(12.25,5.4,4.75)) ;
#594=CARTESIAN_POINT('Vertex',(12.25,5.4,-1.6)) ;
#596=CARTESIAN_POINT('Vertex',(12.25,5.4,11.1)) ;
#599=CARTESIAN_POINT('Line Origine',(12.25,8.881784197E-016,11.1)) ;
#603=CARTESIAN_POINT('Vertex',(12.25,-5.4,11.1)) ;
#606=CARTESIAN_POINT('Line Origine',(12.25,-5.4,4.75)) ;
#610=CARTESIAN_POINT('Vertex',(12.25,-5.4,-1.6)) ;
#613=CARTESIAN_POINT('Line Origine',(12.25,0.,-1.6)) ;
#629=CARTESIAN_POINT('Axis2P3D Location',(-1.7763568394E-015,5.4,11.1)) ;
#634=CARTESIAN_POINT('Axis2P3D Location',(4.95,5.4,11.1)) ;
#638=CARTESIAN_POINT('Vertex',(4.95,5.9,11.1)) ;
#641=CARTESIAN_POINT('Line Origine',(0.,5.9,11.1)) ;
#645=CARTESIAN_POINT('Vertex',(-12.25,5.9,11.1)) ;
#648=CARTESIAN_POINT('Axis2P3D Location',(-12.25,5.4,11.1)) ;
#660=CARTESIAN_POINT('Axis2P3D Location',(-1.7763568394E-015,-5.4,11.1)) ;
#665=CARTESIAN_POINT('Axis2P3D Location',(4.95,-5.4,11.1)) ;
#669=CARTESIAN_POINT('Vertex',(4.95,-5.9,11.1)) ;
#672=CARTESIAN_POINT('Axis2P3D Location',(-12.25,-5.4,11.1)) ;
#676=CARTESIAN_POINT('Vertex',(-12.25,-5.9,11.1)) ;
#679=CARTESIAN_POINT('Line Origine',(0.,-5.9,11.1)) ;
#691=CARTESIAN_POINT('Axis2P3D Location',(-1.7763568394E-015,5.4,11.1)) ;
#696=CARTESIAN_POINT('Line Origine',(0.,5.9,11.1)) ;
#700=CARTESIAN_POINT('Vertex',(6.75,5.9,11.1)) ;
#702=CARTESIAN_POINT('Vertex',(11.75,5.9,11.1)) ;
#705=CARTESIAN_POINT('Axis2P3D Location',(6.75,5.4,11.1)) ;
#709=CARTESIAN_POINT('Vertex',(6.75,5.4,11.6)) ;
#712=CARTESIAN_POINT('Line Origine',(0.,5.4,11.6)) ;
#716=CARTESIAN_POINT('Vertex',(11.75,5.4,11.6)) ;
#719=CARTESIAN_POINT('Axis2P3D Location',(11.75,5.4,11.1)) ;
#731=CARTESIAN_POINT('Line Origine',(11.75,8.881784197E-016,11.6)) ;
#735=CARTESIAN_POINT('Vertex',(11.75,-5.4,11.6)) ;
#738=CARTESIAN_POINT('Line Origine',(6.75,0.,11.6)) ;
#742=CARTESIAN_POINT('Vertex',(6.75,-5.4,11.6)) ;
#745=CARTESIAN_POINT('Line Origine',(9.25,-5.4,11.6)) ;
#757=CARTESIAN_POINT('Axis2P3D Location',(0.,-5.4,11.1)) ;
#762=CARTESIAN_POINT('Axis2P3D Location',(6.75,-5.4,11.1)) ;
#766=CARTESIAN_POINT('Vertex',(6.75,-5.9,11.1)) ;
#769=CARTESIAN_POINT('Line Origine',(0.,-5.9,11.1)) ;
#773=CARTESIAN_POINT('Vertex',(11.75,-5.9,11.1)) ;
#776=CARTESIAN_POINT('Axis2P3D Location',(11.75,-5.4,11.1)) ;
#788=CARTESIAN_POINT('Axis2P3D Location',(11.75,5.4,11.1)) ;
#793=CARTESIAN_POINT('Axis2P3D Location',(11.75,5.4,11.1)) ;
#798=CARTESIAN_POINT('Axis2P3D Location',(11.75,5.4,11.1)) ;
#809=CARTESIAN_POINT('Axis2P3D Location',(11.75,0.,11.1)) ;
#814=CARTESIAN_POINT('Axis2P3D Location',(11.75,-5.4,11.1)) ;
#826=CARTESIAN_POINT('Axis2P3D Location',(11.75,-5.4,11.1)) ;
#831=CARTESIAN_POINT('Axis2P3D Location',(11.75,-5.4,11.1)) ;
#842=CARTESIAN_POINT('Axis2P3D Location',(11.75,-5.4,-1.7763568394E-015)) ;
#847=CARTESIAN_POINT('Line Origine',(11.75,-5.9,0.)) ;
#851=CARTESIAN_POINT('Vertex',(11.75,-5.9,-3.26666666667)) ;
#855=CARTESIAN_POINT('Control Point',(12.25,-5.4,-1.6)) ;
#856=CARTESIAN_POINT('Control Point',(12.25,-5.41063775912,-1.6)) ;
#857=CARTESIAN_POINT('Control Point',(12.2497170952,-5.42127551824,-1.6)) ;
#858=CARTESIAN_POINT('Control Point',(12.2491340455,-5.43204874778,-1.60288639392)) ;
#859=CARTESIAN_POINT('Control Point',(12.2469459952,-5.45922354529,-1.61018021495)) ;
#860=CARTESIAN_POINT('Control Point',(12.2431935251,-5.48440422647,-1.6226879223)) ;
#861=CARTESIAN_POINT('Control Point',(12.240315802,-5.49948958669,-1.63228039104)) ;
#862=CARTESIAN_POINT('Control Point',(12.2333648042,-5.53008557959,-1.65545098167)) ;
#863=CARTESIAN_POINT('Control Point',(12.2251579341,-5.55671439167,-1.68280648345)) ;
#864=CARTESIAN_POINT('Control Point',(12.2203458621,-5.57048046194,-1.69884693559)) ;
#865=CARTESIAN_POINT('Control Point',(12.2019990989,-5.61777280983,-1.76000351985)) ;
#866=CARTESIAN_POINT('Control Point',(12.1816539453,-5.65480170156,-1.82781878542)) ;
#867=CARTESIAN_POINT('Control Point',(12.1666807967,-5.67829124919,-1.87773034639)) ;
#868=CARTESIAN_POINT('Control Point',(12.1299813278,-5.72836295847,-2.00006269295)) ;
#869=CARTESIAN_POINT('Control Point',(12.0920881308,-5.76649220548,-2.1263722802)) ;
#870=CARTESIAN_POINT('Control Point',(12.070141009,-5.78561740885,-2.19952975886)) ;
#871=CARTESIAN_POINT('Control Point',(11.9937216394,-5.84348039989,-2.45426171733)) ;
#872=CARTESIAN_POINT('Control Point',(11.9159649781,-5.87683750132,-2.71344881605)) ;
#873=CARTESIAN_POINT('Control Point',(11.8608962158,-5.89231378818,-2.89701313443)) ;
#874=CARTESIAN_POINT('Control Point',(11.8054480363,-5.9,-3.08183987906)) ;
#875=CARTESIAN_POINT('Control Point',(11.75,-5.9,-3.26666666667)) ;
#884=CARTESIAN_POINT('Axis2P3D Location',(11.75,5.4,-1.7763568394E-015)) ;
#889=CARTESIAN_POINT('Line Origine',(11.75,5.9,0.)) ;
#893=CARTESIAN_POINT('Vertex',(11.75,5.9,-3.26666666667)) ;
#897=CARTESIAN_POINT('Control Point',(12.25,5.4,-1.6)) ;
#898=CARTESIAN_POINT('Control Point',(12.25,5.41063775912,-1.6)) ;
#899=CARTESIAN_POINT('Control Point',(12.2497170952,5.42127551824,-1.6)) ;
#900=CARTESIAN_POINT('Control Point',(12.2491340455,5.43204874778,-1.60288639392)) ;
#901=CARTESIAN_POINT('Control Point',(12.2469459952,5.45922354529,-1.61018021495)) ;
#902=CARTESIAN_POINT('Control Point',(12.2431935251,5.48440422647,-1.6226879223)) ;
#903=CARTESIAN_POINT('Control Point',(12.240315802,5.49948958669,-1.63228039104)) ;
#904=CARTESIAN_POINT('Control Point',(12.2333648042,5.53008557959,-1.65545098167)) ;
#905=CARTESIAN_POINT('Control Point',(12.2251579341,5.55671439167,-1.68280648345)) ;
#906=CARTESIAN_POINT('Control Point',(12.2203458621,5.57048046194,-1.69884693559)) ;
#907=CARTESIAN_POINT('Control Point',(12.2019990989,5.61777280983,-1.76000351985)) ;
#908=CARTESIAN_POINT('Control Point',(12.1816539453,5.65480170156,-1.82781878542)) ;
#909=CARTESIAN_POINT('Control Point',(12.1666807967,5.67829124919,-1.87773034639)) ;
#910=CARTESIAN_POINT('Control Point',(12.1299813278,5.72836295847,-2.00006269295)) ;
#911=CARTESIAN_POINT('Control Point',(12.0920881308,5.76649220548,-2.1263722802)) ;
#912=CARTESIAN_POINT('Control Point',(12.070141009,5.78561740885,-2.19952975886)) ;
#913=CARTESIAN_POINT('Control Point',(11.9937216394,5.84348039989,-2.45426171733)) ;
#914=CARTESIAN_POINT('Control Point',(11.9159649781,5.87683750132,-2.71344881606)) ;
#915=CARTESIAN_POINT('Control Point',(11.8608962158,5.89231378818,-2.89701313443)) ;
#916=CARTESIAN_POINT('Control Point',(11.8054480363,5.9,-3.08183987906)) ;
#917=CARTESIAN_POINT('Control Point',(11.75,5.9,-3.26666666667)) ;
#926=CARTESIAN_POINT('Axis2P3D Location',(-0.25,-5.4,-11.1)) ;
#931=CARTESIAN_POINT('Axis2P3D Location',(-12.25,-5.4,-11.1)) ;
#935=CARTESIAN_POINT('Vertex',(-12.25,-5.9,-11.1)) ;
#937=CARTESIAN_POINT('Vertex',(-12.25,-5.4,-11.6)) ;
#940=CARTESIAN_POINT('Line Origine',(-0.25,-5.4,-11.6)) ;
#944=CARTESIAN_POINT('Vertex',(4.95,-5.4,-11.6)) ;
#947=CARTESIAN_POINT('Axis2P3D Location',(4.95,-5.4,-11.1)) ;
#951=CARTESIAN_POINT('Vertex',(4.95,-5.9,-11.1)) ;
#954=CARTESIAN_POINT('Line Origine',(-0.25,-5.9,-11.1)) ;
#966=CARTESIAN_POINT('Axis2P3D Location',(-0.25,-5.4,-11.1)) ;
#971=CARTESIAN_POINT('Axis2P3D Location',(6.75,-5.4,-11.1)) ;
#975=CARTESIAN_POINT('Vertex',(6.75,-5.9,-11.1)) ;
#977=CARTESIAN_POINT('Vertex',(6.75,-5.4,-11.6)) ;
#980=CARTESIAN_POINT('Line Origine',(-0.25,-5.4,-11.6)) ;
#984=CARTESIAN_POINT('Vertex',(9.25,-5.4,-11.6)) ;
#988=CARTESIAN_POINT('Control Point',(9.25,-5.4,-11.6)) ;
#989=CARTESIAN_POINT('Control Point',(9.25,-5.60068450127,-11.6)) ;
#990=CARTESIAN_POINT('Control Point',(9.28362082529,-5.80230329137,-11.4879302118)) ;
#991=CARTESIAN_POINT('Control Point',(9.34233373289,-5.9,-11.2922208904)) ;
#992=CARTESIAN_POINT('Control Point',(9.4,-5.9,-11.1)) ;
#993=CARTESIAN_POINT('Vertex',(9.4,-5.9,-11.1)) ;
#996=CARTESIAN_POINT('Line Origine',(-0.25,-5.9,-11.1)) ;
#1008=CARTESIAN_POINT('Axis2P3D Location',(9.25,0.,-11.6)) ;
#1013=CARTESIAN_POINT('Line Origine',(8.,5.4,-11.6)) ;
#1017=CARTESIAN_POINT('Vertex',(9.25,5.4,-11.6)) ;
#1019=CARTESIAN_POINT('Vertex',(6.75,5.4,-11.6)) ;
#1022=CARTESIAN_POINT('Line Origine',(9.25,0.,-11.6)) ;
#1027=CARTESIAN_POINT('Line Origine',(6.75,0.,-11.6)) ;
#1039=CARTESIAN_POINT('Axis2P3D Location',(-0.25,5.4,-11.1)) ;
#1044=CARTESIAN_POINT('Axis2P3D Location',(6.75,5.4,-11.1)) ;
#1048=CARTESIAN_POINT('Vertex',(6.75,5.9,-11.1)) ;
#1051=CARTESIAN_POINT('Line Origine',(-0.25,5.9,-11.1)) ;
#1055=CARTESIAN_POINT('Vertex',(9.4,5.9,-11.1)) ;
#1059=CARTESIAN_POINT('Control Point',(9.25,5.4,-11.6)) ;
#1060=CARTESIAN_POINT('Control Point',(9.25,5.60068450127,-11.6)) ;
#1061=CARTESIAN_POINT('Control Point',(9.28362082529,5.80230329137,-11.4879302118)) ;
#1062=CARTESIAN_POINT('Control Point',(9.34233373289,5.9,-11.2922208904)) ;
#1063=CARTESIAN_POINT('Control Point',(9.4,5.9,-11.1)) ;
#1072=CARTESIAN_POINT('Line Origine',(-3.65,5.4,-11.6)) ;
#1076=CARTESIAN_POINT('Vertex',(4.95,5.4,-11.6)) ;
#1078=CARTESIAN_POINT('Vertex',(-12.25,5.4,-11.6)) ;
#1081=CARTESIAN_POINT('Line Origine',(4.95,0.,-11.6)) ;
#1086=CARTESIAN_POINT('Line Origine',(-12.25,0.,-11.6)) ;
#1098=CARTESIAN_POINT('Axis2P3D Location',(-12.25,0.,-11.6)) ;
#1103=CARTESIAN_POINT('Axis2P3D Location',(-12.25,5.4,-11.1)) ;
#1107=CARTESIAN_POINT('Vertex',(-12.25,5.9,-11.1)) ;
#1110=CARTESIAN_POINT('Line Origine',(-12.25,-5.9,-1.7763568394E-015)) ;
#1115=CARTESIAN_POINT('Line Origine',(-12.25,5.9,-1.7763568394E-015)) ;
#1131=CARTESIAN_POINT('Axis2P3D Location',(-0.25,5.4,-11.1)) ;
#1136=CARTESIAN_POINT('Line Origine',(-0.25,5.9,-11.1)) ;
#1140=CARTESIAN_POINT('Vertex',(4.95,5.9,-11.1)) ;
#1143=CARTESIAN_POINT('Axis2P3D Location',(4.95,5.4,-11.1)) ;
#1155=CARTESIAN_POINT('Axis2P3D Location',(-0.25,-4.9,15.1)) ;
#1160=CARTESIAN_POINT('Axis2P3D Location',(6.75,-4.9,15.1)) ;
#1164=CARTESIAN_POINT('Vertex',(6.75,-5.9,15.1)) ;
#1166=CARTESIAN_POINT('Vertex',(6.75,-4.9,16.1)) ;
#1169=CARTESIAN_POINT('Line Origine',(-0.25,-4.9,16.1)) ;
#1173=CARTESIAN_POINT('Vertex',(4.95,-4.9,16.1)) ;
#1176=CARTESIAN_POINT('Axis2P3D Location',(4.95,-4.9,15.1)) ;
#1180=CARTESIAN_POINT('Vertex',(4.95,-5.9,15.1)) ;
#1183=CARTESIAN_POINT('Line Origine',(-0.25,-5.9,15.1)) ;
#1195=CARTESIAN_POINT('Axis2P3D Location',(4.95,0.,16.1)) ;
#1200=CARTESIAN_POINT('Line Origine',(5.85,4.9,16.1)) ;
#1204=CARTESIAN_POINT('Vertex',(4.95,4.9,16.1)) ;
#1206=CARTESIAN_POINT('Vertex',(6.75,4.9,16.1)) ;
#1209=CARTESIAN_POINT('Line Origine',(4.95,0.,16.1)) ;
#1214=CARTESIAN_POINT('Line Origine',(6.75,0.,16.1)) ;
#1226=CARTESIAN_POINT('Axis2P3D Location',(-0.25,4.9,15.1)) ;
#1231=CARTESIAN_POINT('Axis2P3D Location',(6.75,4.9,15.1)) ;
#1235=CARTESIAN_POINT('Vertex',(6.75,5.9,15.1)) ;
#1238=CARTESIAN_POINT('Line Origine',(-0.25,5.9,15.1)) ;
#1242=CARTESIAN_POINT('Vertex',(4.95,5.9,15.1)) ;
#1245=CARTESIAN_POINT('Axis2P3D Location',(4.95,4.9,15.1)) ;
#1257=CARTESIAN_POINT('Axis2P3D Location',(0.,-5.9,0.)) ;
#1262=CARTESIAN_POINT('Line Origine',(5.85,-5.9,-15.1)) ;
#1266=CARTESIAN_POINT('Vertex',(6.75,-5.9,-15.1)) ;
#1268=CARTESIAN_POINT('Vertex',(4.95,-5.9,-15.1)) ;
#1271=CARTESIAN_POINT('Line Origine',(6.75,-5.9,-13.1)) ;
#1276=CARTESIAN_POINT('Line Origine',(10.575,-5.9,-7.18333333333)) ;
#1281=CARTESIAN_POINT('Line Origine',(6.75,-5.9,13.1)) ;
#1286=CARTESIAN_POINT('Line Origine',(4.95,-5.9,13.1)) ;
#1291=CARTESIAN_POINT('Line Origine',(4.95,-5.9,-13.1)) ;
#1312=CARTESIAN_POINT('Axis2P3D Location',(-0.25,-4.9,-15.1)) ;
#1317=CARTESIAN_POINT('Axis2P3D Location',(4.95,-4.9,-15.1)) ;
#1321=CARTESIAN_POINT('Vertex',(4.95,-4.9,-16.1)) ;
#1324=CARTESIAN_POINT('Line Origine',(-0.25,-4.9,-16.1)) ;
#1328=CARTESIAN_POINT('Vertex',(6.75,-4.9,-16.1)) ;
#1331=CARTESIAN_POINT('Axis2P3D Location',(6.75,-4.9,-15.1)) ;
#1343=CARTESIAN_POINT('Axis2P3D Location',(0.,5.9,0.)) ;
#1348=CARTESIAN_POINT('Line Origine',(4.95,5.9,-13.1)) ;
#1352=CARTESIAN_POINT('Vertex',(4.95,5.9,-15.1)) ;
#1355=CARTESIAN_POINT('Line Origine',(4.95,5.9,13.1)) ;
#1360=CARTESIAN_POINT('Line Origine',(6.75,5.9,13.1)) ;
#1365=CARTESIAN_POINT('Line Origine',(10.575,5.9,-7.18333333333)) ;
#1370=CARTESIAN_POINT('Line Origine',(6.75,5.9,-13.1)) ;
#1374=CARTESIAN_POINT('Vertex',(6.75,5.9,-15.1)) ;
#1377=CARTESIAN_POINT('Line Origine',(5.85,5.9,-15.1)) ;
#1398=CARTESIAN_POINT('Axis2P3D Location',(4.95,0.,-16.1)) ;
#1403=CARTESIAN_POINT('Line Origine',(6.75,0.,-16.1)) ;
#1407=CARTESIAN_POINT('Vertex',(6.75,4.9,-16.1)) ;
#1410=CARTESIAN_POINT('Line Origine',(4.95,0.,-16.1)) ;
#1414=CARTESIAN_POINT('Vertex',(4.95,4.9,-16.1)) ;
#1417=CARTESIAN_POINT('Line Origine',(5.85,4.9,-16.1)) ;
#1429=CARTESIAN_POINT('Axis2P3D Location',(-0.25,4.9,-15.1)) ;
#1434=CARTESIAN_POINT('Axis2P3D Location',(4.95,4.9,-15.1)) ;
#1439=CARTESIAN_POINT('Axis2P3D Location',(6.75,4.9,-15.1)) ;
#1451=CARTESIAN_POINT('Axis2P3D Location',(4.95,0.,-11.6)) ;
#1466=CARTESIAN_POINT('Axis2P3D Location',(4.95,0.,-13.75)) ;
#1470=CARTESIAN_POINT('Vertex',(4.95,1.,-13.75)) ;
#1472=CARTESIAN_POINT('Vertex',(4.95,-1.,-13.75)) ;
#1475=CARTESIAN_POINT('Axis2P3D Location',(4.95,0.,-13.75)) ;
#1485=CARTESIAN_POINT('Axis2P3D Location',(6.75,0.,-16.1)) ;
#1500=CARTESIAN_POINT('Axis2P3D Location',(6.75,0.,-13.75)) ;
#1504=CARTESIAN_POINT('Vertex',(6.75,1.,-13.75)) ;
#1506=CARTESIAN_POINT('Vertex',(6.75,-1.,-13.75)) ;
#1509=CARTESIAN_POINT('Axis2P3D Location',(6.75,0.,-13.75)) ;
#1529=CARTESIAN_POINT('Axis2P3D Location',(6.75,0.,13.75)) ;
#1533=CARTESIAN_POINT('Vertex',(6.75,1.,13.75)) ;
#1535=CARTESIAN_POINT('Vertex',(6.75,-1.,13.75)) ;
#1538=CARTESIAN_POINT('Axis2P3D Location',(6.75,0.,13.75)) ;
#1558=CARTESIAN_POINT('Axis2P3D Location',(4.95,0.,13.75)) ;
#1562=CARTESIAN_POINT('Vertex',(4.95,1.,13.75)) ;
#1564=CARTESIAN_POINT('Vertex',(4.95,-1.,13.75)) ;
#1567=CARTESIAN_POINT('Axis2P3D Location',(4.95,0.,13.75)) ;
#1577=CARTESIAN_POINT('Axis2P3D Location',(5.23999999992,0.,-13.75)) ;
#1582=CARTESIAN_POINT('Line Origine',(5.23999999992,1.,-13.75)) ;
#1587=CARTESIAN_POINT('Line Origine',(5.23999999992,-1.,-13.75)) ;
#1606=CARTESIAN_POINT('Axis2P3D Location',(5.23999999992,0.,13.75)) ;
#1611=CARTESIAN_POINT('Line Origine',(5.23999999992,1.,13.75)) ;
#1616=CARTESIAN_POINT('Line Origine',(5.23999999992,-1.,13.75)) ;
#1635=CARTESIAN_POINT('Axis2P3D Location',(12.25,0.,-3.2)) ;
#1640=CARTESIAN_POINT('Line Origine',(11.77,0.,-3.2)) ;
#1644=CARTESIAN_POINT('Vertex',(11.77,-5.4,-3.2)) ;
#1646=CARTESIAN_POINT('Vertex',(11.77,5.4,-3.2)) ;
#1649=CARTESIAN_POINT('Line Origine',(12.01,-5.4,-3.2)) ;
#1653=CARTESIAN_POINT('Vertex',(12.25,-5.4,-3.2)) ;
#1656=CARTESIAN_POINT('Line Origine',(12.25,0.,-3.2)) ;
#1660=CARTESIAN_POINT('Vertex',(12.25,5.4,-3.2)) ;
#1663=CARTESIAN_POINT('Line Origine',(12.01,5.4,-3.2)) ;
#1684=CARTESIAN_POINT('Axis2P3D Location',(12.25,-5.4,0.)) ;
#1689=CARTESIAN_POINT('Line Origine',(11.0125403476,-5.4,-9.56849018588)) ;
#1693=CARTESIAN_POINT('Vertex',(12.25,-5.4,-9.28724935579)) ;
#1695=CARTESIAN_POINT('Vertex',(9.77508069521,-5.4,-9.84973101597)) ;
#1698=CARTESIAN_POINT('Line Origine',(12.25,-5.4,-6.24362467789)) ;
#1703=CARTESIAN_POINT('Line Origine',(10.7725403476,-5.4,-6.52486550798)) ;
#1715=CARTESIAN_POINT('Axis2P3D Location',(10.8745947241,-4.9,-9.59984146395)) ;
#1721=CARTESIAN_POINT('Control Point',(9.77508069521,-5.4,-9.84973101597)) ;
#1722=CARTESIAN_POINT('Control Point',(9.72652930276,-5.4,-10.0115689908)) ;
#1723=CARTESIAN_POINT('Control Point',(9.67854135965,-5.34574421466,-10.171526853)) ;
#1724=CARTESIAN_POINT('Control Point',(9.63431032493,-5.23927880091,-10.3189663244)) ;
#1725=CARTESIAN_POINT('Control Point',(9.61,-5.06896380621,-10.4)) ;
#1726=CARTESIAN_POINT('Control Point',(9.61,-4.9,-10.4)) ;
#1727=CARTESIAN_POINT('Vertex',(9.61,-4.9,-10.4)) ;
#1730=CARTESIAN_POINT('Line Origine',(10.9854052759,-4.9,-10.0874078918)) ;
#1734=CARTESIAN_POINT('Vertex',(12.25,-4.9,-9.8)) ;
#1738=CARTESIAN_POINT('Control Point',(12.25,-4.9,-9.8)) ;
#1739=CARTESIAN_POINT('Control Point',(12.25,-5.09885038269,-9.8)) ;
#1740=CARTESIAN_POINT('Control Point',(12.2499999446,-5.2993756766,-9.68822548585)) ;
#1741=CARTESIAN_POINT('Control Point',(12.25,-5.4,-9.48609973848)) ;
#1742=CARTESIAN_POINT('Control Point',(12.25,-5.4,-9.28724935579)) ;
#1751=CARTESIAN_POINT('Axis2P3D Location',(12.25,0.,-1.6)) ;
#1766=CARTESIAN_POINT('Line Origine',(9.61,0.,-10.4)) ;
#1770=CARTESIAN_POINT('Vertex',(9.61,4.9,-10.4)) ;
#1773=CARTESIAN_POINT('Line Origine',(10.7725403476,5.4,-6.52486550798)) ;
#1777=CARTESIAN_POINT('Vertex',(9.77508069521,5.4,-9.84973101597)) ;
#1781=CARTESIAN_POINT('Control Point',(9.77508069521,5.4,-9.84973101597)) ;
#1782=CARTESIAN_POINT('Control Point',(9.75447732262,5.4,-9.91840892462)) ;
#1783=CARTESIAN_POINT('Control Point',(9.73387409986,5.39026436975,-9.9870863338)) ;
#1784=CARTESIAN_POINT('Control Point',(9.71374839113,5.37078631588,-10.0541720296)) ;
#1785=CARTESIAN_POINT('Control Point',(9.68110426551,5.32070998349,-10.1629857816)) ;
#1786=CARTESIAN_POINT('Control Point',(9.65350360761,5.24319950807,-10.2549879746)) ;
#1787=CARTESIAN_POINT('Control Point',(9.64314626542,5.20639446796,-10.2895124486)) ;
#1788=CARTESIAN_POINT('Control Point',(9.62612348045,5.12816604812,-10.3462550652)) ;
#1789=CARTESIAN_POINT('Control Point',(9.61530438404,5.03771472198,-10.3823187199)) ;
#1790=CARTESIAN_POINT('Control Point',(9.61176794442,4.99256116416,-10.3941068519)) ;
#1791=CARTESIAN_POINT('Control Point',(9.61,4.94628083202,-10.4)) ;
#1792=CARTESIAN_POINT('Control Point',(9.61,4.9,-10.4)) ;
#1803=CARTESIAN_POINT('Axis2P3D Location',(12.25,5.4,0.)) ;
#1808=CARTESIAN_POINT('Line Origine',(12.25,5.4,-6.24362467789)) ;
#1812=CARTESIAN_POINT('Vertex',(12.25,5.4,-9.28724935579)) ;
#1815=CARTESIAN_POINT('Line Origine',(11.0125403476,5.4,-9.56849018588)) ;
#1827=CARTESIAN_POINT('Axis2P3D Location',(12.25,0.,-9.8)) ;
#1832=CARTESIAN_POINT('Line Origine',(12.25,0.,-9.8)) ;
#1836=CARTESIAN_POINT('Vertex',(12.25,4.9,-9.8)) ;
#1839=CARTESIAN_POINT('Line Origine',(10.93,4.9,-10.1)) ;
#1852=CARTESIAN_POINT('Control Point',(12.25,4.9,-9.8)) ;
#1853=CARTESIAN_POINT('Control Point',(12.25,4.94738804024,-9.8)) ;
#1854=CARTESIAN_POINT('Control Point',(12.25,4.994775663,-9.79424276821)) ;
#1855=CARTESIAN_POINT('Control Point',(12.25,5.04122751776,-9.78272692729)) ;
#1856=CARTESIAN_POINT('Control Point',(12.25,5.13081216564,-9.74856693878)) ;
#1857=CARTESIAN_POINT('Control Point',(12.25,5.20976979994,-9.69416095618)) ;
#1858=CARTESIAN_POINT('Control Point',(12.25,5.2459491788,-9.66221059691)) ;
#1859=CARTESIAN_POINT('Control Point',(12.25,5.31041769938,-9.59003136302)) ;
#1860=CARTESIAN_POINT('Control Point',(12.25,5.35645570154,-9.50489080986)) ;
#1861=CARTESIAN_POINT('Control Point',(12.25,5.37448037883,-9.45958405483)) ;
#1862=CARTESIAN_POINT('Control Point',(12.25,5.39118031173,-9.39748589906)) ;
#1863=CARTESIAN_POINT('Control Point',(12.25,5.39826888407,-9.33395383544)) ;
#1864=CARTESIAN_POINT('Control Point',(12.25,5.39942401652,-9.31838090095)) ;
#1865=CARTESIAN_POINT('Control Point',(12.25,5.4,-9.30281514773)) ;
#1866=CARTESIAN_POINT('Control Point',(12.25,5.4,-9.28724935579)) ;
#1877=CARTESIAN_POINT('Axis2P3D Location',(10.8745947241,4.9,-9.59984146395)) ;
#52=DIRECTION('Axis2P3D Direction',(-0.,0.,1.)) ;
#53=DIRECTION('Axis2P3D XDirection',(0.,-1.,0.)) ;
#57=DIRECTION('Vector Direction',(0.,0.,1.)) ;
#66=DIRECTION('Axis2P3D Direction',(-0.,0.,1.)) ;
#73=DIRECTION('Vector Direction',(0.,0.,1.)) ;
#80=DIRECTION('Axis2P3D Direction',(-0.,0.,1.)) ;
#92=DIRECTION('Axis2P3D Direction',(-0.,0.,1.)) ;
#97=DIRECTION('Axis2P3D Direction',(-0.,0.,1.)) ;
#109=DIRECTION('Axis2P3D Direction',(-0.,0.,1.)) ;
#110=DIRECTION('Axis2P3D XDirection',(0.,-1.,0.)) ;
#119=DIRECTION('Axis2P3D Direction',(-0.,0.,1.)) ;
#120=DIRECTION('Axis2P3D XDirection',(0.,-1.,0.)) ;
#124=DIRECTION('Vector Direction',(0.,0.,1.)) ;
#133=DIRECTION('Axis2P3D Direction',(-0.,0.,1.)) ;
#140=DIRECTION('Vector Direction',(0.,0.,1.)) ;
#147=DIRECTION('Axis2P3D Direction',(-0.,0.,1.)) ;
#159=DIRECTION('Axis2P3D Direction',(-0.,0.,1.)) ;
#164=DIRECTION('Axis2P3D Direction',(-0.,0.,1.)) ;
#181=DIRECTION('Axis2P3D Direction',(-0.,0.,1.)) ;
#182=DIRECTION('Axis2P3D XDirection',(0.,-1.,0.)) ;
#186=DIRECTION('Vector Direction',(0.,0.,1.)) ;
#195=DIRECTION('Axis2P3D Direction',(-0.,0.,1.)) ;
#202=DIRECTION('Vector Direction',(0.,0.,1.)) ;
#209=DIRECTION('Axis2P3D Direction',(-0.,0.,1.)) ;
#221=DIRECTION('Axis2P3D Direction',(-0.,0.,1.)) ;
#226=DIRECTION('Axis2P3D Direction',(-0.,0.,1.)) ;
#243=DIRECTION('Axis2P3D Direction',(0.,0.,-1.)) ;
#244=DIRECTION('Axis2P3D XDirection',(1.,-0.,0.)) ;
#248=DIRECTION('Vector Direction',(1.,0.,0.)) ;
#257=DIRECTION('Vector Direction',(0.,-1.,0.)) ;
#264=DIRECTION('Vector Direction',(1.,0.,0.)) ;
#271=DIRECTION('Vector Direction',(0.,-1.,0.)) ;
#295=DIRECTION('Axis2P3D Direction',(1.,9.25185853854E-016,-0.)) ;
#296=DIRECTION('Axis2P3D XDirection',(-9.21962311176E-016,1.,0.)) ;
#300=DIRECTION('Vector Direction',(0.707106781187,0.707106781187,0.)) ;
#309=DIRECTION('Axis2P3D Direction',(1.,0.,-0.)) ;
#316=DIRECTION('Vector Direction',(0.707106781187,-0.707106781187,1.10173938405E-007)) ;
#323=DIRECTION('Axis2P3D Direction',(1.,0.,-0.)) ;
#335=DIRECTION('Axis2P3D Direction',(1.,-1.81151390185E-012,6.39488462184E-013)) ;
#336=DIRECTION('Axis2P3D XDirection',(-1.92097432979E-012,-0.939479970306,0.342603831553)) ;
#340=DIRECTION('Axis2P3D Direction',(1.,-6.79897379777E-015,-1.86439820964E-014)) ;
#345=DIRECTION('Axis2P3D Direction',(1.,-6.79897379777E-015,-1.86439820964E-014)) ;
#357=DIRECTION('Axis2P3D Direction',(1.,0.,0.)) ;
#358=DIRECTION('Axis2P3D XDirection',(0.,1.,0.)) ;
#362=DIRECTION('Axis2P3D Direction',(1.,0.,0.)) ;
#371=DIRECTION('Axis2P3D Direction',(1.,0.,0.)) ;
#385=DIRECTION('Axis2P3D Direction',(1.,0.,0.)) ;
#386=DIRECTION('Axis2P3D XDirection',(0.,1.,0.)) ;
#390=DIRECTION('Vector Direction',(1.,0.,0.)) ;
#397=DIRECTION('Axis2P3D Direction',(1.,0.,0.)) ;
#404=DIRECTION('Vector Direction',(1.,0.,0.)) ;
#416=DIRECTION('Axis2P3D Direction',(1.,0.,0.)) ;
#428=DIRECTION('Axis2P3D Direction',(-1.,1.48029736617E-015,2.96059473233E-015)) ;
#429=DIRECTION('Axis2P3D XDirection',(1.44879791756E-015,1.,-3.55271352211E-016)) ;
#433=DIRECTION('Vector Direction',(-0.707106781187,0.707106781187,2.09345661158E-015)) ;
#440=DIRECTION('Axis2P3D Direction',(1.,-1.05181454029E-030,-2.96059473233E-015)) ;
#447=DIRECTION('Vector Direction',(-0.707106781187,-0.707106781187,2.09345661158E-015)) ;
#459=DIRECTION('Axis2P3D Direction',(-1.,-5.27726011038E-013,6.66133814775E-013)) ;
#460=DIRECTION('Axis2P3D XDirection',(6.40368679563E-013,-0.983198209587,0.182541175258)) ;
#464=DIRECTION('Axis2P3D Direction',(1.,-1.01969298121E-013,-5.49224202178E-013)) ;
#476=DIRECTION('Axis2P3D Direction',(1.,0.,0.)) ;
#477=DIRECTION('Axis2P3D XDirection',(0.,1.,0.)) ;
#481=DIRECTION('Vector Direction',(1.,0.,0.)) ;
#488=DIRECTION('Axis2P3D Direction',(1.,0.,0.)) ;
#495=DIRECTION('Vector Direction',(1.,0.,0.)) ;
#507=DIRECTION('Axis2P3D Direction',(1.,0.,0.)) ;
#519=DIRECTION('Axis2P3D Direction',(1.,0.,0.)) ;
#520=DIRECTION('Axis2P3D XDirection',(0.,1.,0.)) ;
#529=DIRECTION('Axis2P3D Direction',(1.,0.,-0.)) ;
#530=DIRECTION('Axis2P3D XDirection',(0.,1.,0.)) ;
#534=DIRECTION('Vector Direction',(1.,0.,0.)) ;
#543=DIRECTION('Axis2P3D Direction',(1.,0.,-0.)) ;
#550=DIRECTION('Vector Direction',(1.,0.,0.)) ;
#557=DIRECTION('Axis2P3D Direction',(1.,0.,-0.)) ;
#569=DIRECTION('Axis2P3D Direction',(1.,0.,-0.)) ;
#574=DIRECTION('Axis2P3D Direction',(1.,0.,-0.)) ;
#586=DIRECTION('Axis2P3D Direction',(-1.,0.,0.)) ;
#587=DIRECTION('Axis2P3D XDirection',(-0.,0.,-1.)) ;
#591=DIRECTION('Vector Direction',(0.,0.,1.)) ;
#600=DIRECTION('Vector Direction',(0.,-1.,0.)) ;
#607=DIRECTION('Vector Direction',(0.,0.,1.)) ;
#614=DIRECTION('Vector Direction',(0.,-1.,0.)) ;
#630=DIRECTION('Axis2P3D Direction',(1.,0.,-0.)) ;
#631=DIRECTION('Axis2P3D XDirection',(-0.,1.,-1.83697019872E-016)) ;
#635=DIRECTION('Axis2P3D Direction',(1.,0.,-0.)) ;
#642=DIRECTION('Vector Direction',(1.,0.,0.)) ;
#649=DIRECTION('Axis2P3D Direction',(1.,0.,-0.)) ;
#661=DIRECTION('Axis2P3D Direction',(1.,0.,0.)) ;
#662=DIRECTION('Axis2P3D XDirection',(-0.,1.83697019872E-016,1.)) ;
#666=DIRECTION('Axis2P3D Direction',(1.,0.,0.)) ;
#673=DIRECTION('Axis2P3D Direction',(1.,0.,0.)) ;
#680=DIRECTION('Vector Direction',(1.,0.,0.)) ;
#692=DIRECTION('Axis2P3D Direction',(1.,0.,-0.)) ;
#693=DIRECTION('Axis2P3D XDirection',(-0.,1.,-1.83697019872E-016)) ;
#697=DIRECTION('Vector Direction',(1.,0.,0.)) ;
#706=DIRECTION('Axis2P3D Direction',(1.,0.,-0.)) ;
#713=DIRECTION('Vector Direction',(1.,0.,0.)) ;
#720=DIRECTION('Axis2P3D Direction',(1.,0.,-0.)) ;
#732=DIRECTION('Vector Direction',(0.,-1.,0.)) ;
#739=DIRECTION('Vector Direction',(0.,-1.,0.)) ;
#746=DIRECTION('Vector Direction',(1.,0.,0.)) ;
#758=DIRECTION('Axis2P3D Direction',(1.,0.,0.)) ;
#759=DIRECTION('Axis2P3D XDirection',(-0.,1.83697019872E-016,1.)) ;
#763=DIRECTION('Axis2P3D Direction',(1.,0.,0.)) ;
#770=DIRECTION('Vector Direction',(1.,0.,0.)) ;
#777=DIRECTION('Axis2P3D Direction',(1.,0.,0.)) ;
#789=DIRECTION('Axis2P3D Direction',(1.,0.,0.)) ;
#790=DIRECTION('Axis2P3D XDirection',(0.,0.707106781187,-0.707106781187)) ;
#794=DIRECTION('Axis2P3D Direction',(0.,0.,-1.)) ;
#799=DIRECTION('Axis2P3D Direction',(0.,1.,-1.66533453694E-016)) ;
#810=DIRECTION('Axis2P3D Direction',(0.,-1.,0.)) ;
#811=DIRECTION('Axis2P3D XDirection',(1.,-0.,-1.83697019872E-016)) ;
#815=DIRECTION('Axis2P3D Direction',(0.,-1.,0.)) ;
#827=DIRECTION('Axis2P3D Direction',(1.,0.,0.)) ;
#828=DIRECTION('Axis2P3D XDirection',(0.,0.707106781187,0.707106781187)) ;
#832=DIRECTION('Axis2P3D Direction',(-0.,5.55111512313E-017,1.)) ;
#843=DIRECTION('Axis2P3D Direction',(0.,0.,1.)) ;
#844=DIRECTION('Axis2P3D XDirection',(0.,-1.,0.)) ;
#848=DIRECTION('Vector Direction',(0.,0.,1.)) ;
#885=DIRECTION('Axis2P3D Direction',(0.,-0.,1.)) ;
#886=DIRECTION('Axis2P3D XDirection',(1.,-1.83697019872E-016,-0.)) ;
#890=DIRECTION('Vector Direction',(0.,0.,1.)) ;
#927=DIRECTION('Axis2P3D Direction',(-1.,0.,0.)) ;
#928=DIRECTION('Axis2P3D XDirection',(-0.,1.83697019872E-016,-1.)) ;
#932=DIRECTION('Axis2P3D Direction',(-1.,0.,0.)) ;
#941=DIRECTION('Vector Direction',(-1.,0.,0.)) ;
#948=DIRECTION('Axis2P3D Direction',(-1.,0.,0.)) ;
#955=DIRECTION('Vector Direction',(-1.,0.,0.)) ;
#967=DIRECTION('Axis2P3D Direction',(-1.,0.,0.)) ;
#968=DIRECTION('Axis2P3D XDirection',(-0.,1.83697019872E-016,-1.)) ;
#972=DIRECTION('Axis2P3D Direction',(-1.,0.,0.)) ;
#981=DIRECTION('Vector Direction',(-1.,0.,0.)) ;
#997=DIRECTION('Vector Direction',(-1.,0.,0.)) ;
#1009=DIRECTION('Axis2P3D Direction',(0.,0.,1.)) ;
#1010=DIRECTION('Axis2P3D XDirection',(-1.,0.,0.)) ;
#1014=DIRECTION('Vector Direction',(-1.,0.,0.)) ;
#1023=DIRECTION('Vector Direction',(0.,-1.,0.)) ;
#1028=DIRECTION('Vector Direction',(0.,-1.,0.)) ;
#1040=DIRECTION('Axis2P3D Direction',(-1.,0.,0.)) ;
#1041=DIRECTION('Axis2P3D XDirection',(0.,1.,1.83697019872E-016)) ;
#1045=DIRECTION('Axis2P3D Direction',(-1.,0.,0.)) ;
#1052=DIRECTION('Vector Direction',(-1.,0.,0.)) ;
#1073=DIRECTION('Vector Direction',(-1.,0.,0.)) ;
#1082=DIRECTION('Vector Direction',(0.,-1.,0.)) ;
#1087=DIRECTION('Vector Direction',(0.,-1.,0.)) ;
#1099=DIRECTION('Axis2P3D Direction',(1.,0.,-0.)) ;
#1100=DIRECTION('Axis2P3D XDirection',(0.,0.,1.)) ;
#1104=DIRECTION('Axis2P3D Direction',(1.,0.,-0.)) ;
#1111=DIRECTION('Vector Direction',(0.,0.,1.)) ;
#1116=DIRECTION('Vector Direction',(0.,0.,1.)) ;
#1132=DIRECTION('Axis2P3D Direction',(-1.,0.,0.)) ;
#1133=DIRECTION('Axis2P3D XDirection',(0.,1.,1.83697019872E-016)) ;
#1137=DIRECTION('Vector Direction',(-1.,0.,0.)) ;
#1144=DIRECTION('Axis2P3D Direction',(-1.,0.,0.)) ;
#1156=DIRECTION('Axis2P3D Direction',(1.,0.,0.)) ;
#1157=DIRECTION('Axis2P3D XDirection',(-0.,1.83697019872E-016,1.)) ;
#1161=DIRECTION('Axis2P3D Direction',(1.,0.,0.)) ;
#1170=DIRECTION('Vector Direction',(1.,0.,0.)) ;
#1177=DIRECTION('Axis2P3D Direction',(1.,0.,0.)) ;
#1184=DIRECTION('Vector Direction',(1.,0.,0.)) ;
#1196=DIRECTION('Axis2P3D Direction',(0.,0.,-1.)) ;
#1197=DIRECTION('Axis2P3D XDirection',(1.,-0.,0.)) ;
#1201=DIRECTION('Vector Direction',(1.,0.,0.)) ;
#1210=DIRECTION('Vector Direction',(0.,-1.,0.)) ;
#1215=DIRECTION('Vector Direction',(0.,-1.,0.)) ;
#1227=DIRECTION('Axis2P3D Direction',(1.,0.,-0.)) ;
#1228=DIRECTION('Axis2P3D XDirection',(-0.,1.,-1.83697019872E-016)) ;
#1232=DIRECTION('Axis2P3D Direction',(1.,0.,-0.)) ;
#1239=DIRECTION('Vector Direction',(1.,0.,0.)) ;
#1246=DIRECTION('Axis2P3D Direction',(1.,0.,-0.)) ;
#1258=DIRECTION('Axis2P3D Direction',(0.,1.,-0.)) ;
#1259=DIRECTION('Axis2P3D XDirection',(-1.,0.,0.)) ;
#1263=DIRECTION('Vector Direction',(1.,0.,0.)) ;
#1272=DIRECTION('Vector Direction',(0.,0.,-1.)) ;
#1277=DIRECTION('Vector Direction',(-0.287347885566,0.,-0.957826285221)) ;
#1282=DIRECTION('Vector Direction',(1.55431223448E-015,0.,-1.)) ;
#1287=DIRECTION('Vector Direction',(-1.24344978758E-014,0.,-1.)) ;
#1292=DIRECTION('Vector Direction',(1.55431223448E-015,0.,-1.)) ;
#1313=DIRECTION('Axis2P3D Direction',(1.,0.,0.)) ;
#1314=DIRECTION('Axis2P3D XDirection',(0.,-1.,0.)) ;
#1318=DIRECTION('Axis2P3D Direction',(1.,0.,0.)) ;
#1325=DIRECTION('Vector Direction',(1.,0.,0.)) ;
#1332=DIRECTION('Axis2P3D Direction',(1.,0.,0.)) ;
#1344=DIRECTION('Axis2P3D Direction',(0.,1.,-0.)) ;
#1345=DIRECTION('Axis2P3D XDirection',(-1.,0.,0.)) ;
#1349=DIRECTION('Vector Direction',(1.55431223448E-015,0.,-1.)) ;
#1356=DIRECTION('Vector Direction',(1.7763568394E-015,0.,-1.)) ;
#1361=DIRECTION('Vector Direction',(5.3290705182E-015,0.,-1.)) ;
#1366=DIRECTION('Vector Direction',(-0.287347885566,0.,-0.957826285221)) ;
#1371=DIRECTION('Vector Direction',(0.,0.,-1.)) ;
#1378=DIRECTION('Vector Direction',(1.,0.,0.)) ;
#1399=DIRECTION('Axis2P3D Direction',(0.,0.,-1.)) ;
#1400=DIRECTION('Axis2P3D XDirection',(1.,-0.,0.)) ;
#1404=DIRECTION('Vector Direction',(0.,-1.,0.)) ;
#1411=DIRECTION('Vector Direction',(0.,-1.,0.)) ;
#1418=DIRECTION('Vector Direction',(1.,0.,0.)) ;
#1430=DIRECTION('Axis2P3D Direction',(1.,0.,0.)) ;
#1431=DIRECTION('Axis2P3D XDirection',(0.,0.,-1.)) ;
#1435=DIRECTION('Axis2P3D Direction',(1.,0.,0.)) ;
#1440=DIRECTION('Axis2P3D Direction',(1.,0.,0.)) ;
#1452=DIRECTION('Axis2P3D Direction',(-1.,0.,0.)) ;
#1453=DIRECTION('Axis2P3D XDirection',(-0.,0.,-1.)) ;
#1467=DIRECTION('Axis2P3D Direction',(-1.,0.,0.)) ;
#1476=DIRECTION('Axis2P3D Direction',(-1.,0.,0.)) ;
#1486=DIRECTION('Axis2P3D Direction',(1.,0.,-0.)) ;
#1487=DIRECTION('Axis2P3D XDirection',(0.,0.,1.)) ;
#1501=DIRECTION('Axis2P3D Direction',(1.,0.,-0.)) ;
#1510=DIRECTION('Axis2P3D Direction',(1.,0.,-0.)) ;
#1530=DIRECTION('Axis2P3D Direction',(1.,0.,-0.)) ;
#1539=DIRECTION('Axis2P3D Direction',(1.,0.,-0.)) ;
#1559=DIRECTION('Axis2P3D Direction',(-1.,0.,0.)) ;
#1568=DIRECTION('Axis2P3D Direction',(-1.,0.,0.)) ;
#1578=DIRECTION('Axis2P3D Direction',(1.,0.,-0.)) ;
#1579=DIRECTION('Axis2P3D XDirection',(0.,1.,0.)) ;
#1583=DIRECTION('Vector Direction',(1.,0.,0.)) ;
#1588=DIRECTION('Vector Direction',(1.,0.,0.)) ;
#1607=DIRECTION('Axis2P3D Direction',(1.,0.,-0.)) ;
#1608=DIRECTION('Axis2P3D XDirection',(0.,1.,0.)) ;
#1612=DIRECTION('Vector Direction',(1.,0.,0.)) ;
#1617=DIRECTION('Vector Direction',(1.,0.,0.)) ;
#1636=DIRECTION('Axis2P3D Direction',(0.,0.,-1.)) ;
#1637=DIRECTION('Axis2P3D XDirection',(-1.,0.,0.)) ;
#1641=DIRECTION('Vector Direction',(0.,1.,0.)) ;
#1650=DIRECTION('Vector Direction',(-1.,0.,0.)) ;
#1657=DIRECTION('Vector Direction',(0.,1.,0.)) ;
#1664=DIRECTION('Vector Direction',(-1.,0.,0.)) ;
#1685=DIRECTION('Axis2P3D Direction',(0.,1.,-0.)) ;
#1686=DIRECTION('Axis2P3D XDirection',(-1.,0.,0.)) ;
#1690=DIRECTION('Vector Direction',(-0.975132855791,0.,-0.221621103589)) ;
#1699=DIRECTION('Vector Direction',(0.,0.,-1.)) ;
#1704=DIRECTION('Vector Direction',(-0.287347885566,0.,-0.957826285221)) ;
#1716=DIRECTION('Axis2P3D Direction',(-0.975132855791,-0.,-0.221621103589)) ;
#1717=DIRECTION('Axis2P3D XDirection',(0.221621103589,1.83697019872E-016,-0.975132855791)) ;
#1731=DIRECTION('Vector Direction',(-0.975132855791,0.,-0.221621103589)) ;
#1752=DIRECTION('Axis2P3D Direction',(-0.957826285221,0.,0.287347885566)) ;
#1753=DIRECTION('Axis2P3D XDirection',(-0.287347885566,0.,-0.957826285221)) ;
#1767=DIRECTION('Vector Direction',(0.,1.,0.)) ;
#1774=DIRECTION('Vector Direction',(-0.287347885566,0.,-0.957826285221)) ;
#1804=DIRECTION('Axis2P3D Direction',(0.,1.,-0.)) ;
#1805=DIRECTION('Axis2P3D XDirection',(-1.,0.,0.)) ;
#1809=DIRECTION('Vector Direction',(0.,0.,-1.)) ;
#1816=DIRECTION('Vector Direction',(0.975132855791,0.,0.221621103589)) ;
#1828=DIRECTION('Axis2P3D Direction',(0.221621103589,0.,-0.975132855791)) ;
#1829=DIRECTION('Axis2P3D XDirection',(-0.975132855791,0.,-0.221621103589)) ;
#1833=DIRECTION('Vector Direction',(0.,1.,0.)) ;
#1840=DIRECTION('Vector Direction',(0.975132855791,0.,0.221621103589)) ;
#1878=DIRECTION('Axis2P3D Direction',(0.975132855791,0.,0.221621103589)) ;
#1879=DIRECTION('Axis2P3D XDirection',(0.221621103589,0.,-0.975132855791)) ;
#47=AXIS2_PLACEMENT_3D(' ',#46,$,$) ;
#54=AXIS2_PLACEMENT_3D('Cylinder Axis2P3D',#51,#52,#53) ;
#67=AXIS2_PLACEMENT_3D('Circle Axis2P3D',#65,#66,$) ;
#81=AXIS2_PLACEMENT_3D('Circle Axis2P3D',#79,#80,$) ;
#93=AXIS2_PLACEMENT_3D('Circle Axis2P3D',#91,#92,$) ;
#98=AXIS2_PLACEMENT_3D('Circle Axis2P3D',#96,#97,$) ;
#111=AXIS2_PLACEMENT_3D('Plane Axis2P3D',#108,#109,#110) ;
#121=AXIS2_PLACEMENT_3D('Cylinder Axis2P3D',#118,#119,#120) ;
#134=AXIS2_PLACEMENT_3D('Circle Axis2P3D',#132,#133,$) ;
#148=AXIS2_PLACEMENT_3D('Circle Axis2P3D',#146,#147,$) ;
#160=AXIS2_PLACEMENT_3D('Circle Axis2P3D',#158,#159,$) ;
#165=AXIS2_PLACEMENT_3D('Circle Axis2P3D',#163,#164,$) ;
#183=AXIS2_PLACEMENT_3D('Cylinder Axis2P3D',#180,#181,#182) ;
#196=AXIS2_PLACEMENT_3D('Circle Axis2P3D',#194,#195,$) ;
#210=AXIS2_PLACEMENT_3D('Circle Axis2P3D',#208,#209,$) ;
#222=AXIS2_PLACEMENT_3D('Circle Axis2P3D',#220,#221,$) ;
#227=AXIS2_PLACEMENT_3D('Circle Axis2P3D',#225,#226,$) ;
#245=AXIS2_PLACEMENT_3D('Plane Axis2P3D',#242,#243,#244) ;
#297=AXIS2_PLACEMENT_3D('Cone Axis2P3D',#294,#295,#296) ;
#310=AXIS2_PLACEMENT_3D('Circle Axis2P3D',#308,#309,$) ;
#324=AXIS2_PLACEMENT_3D('Circle Axis2P3D',#322,#323,$) ;
#337=AXIS2_PLACEMENT_3D('Cone Axis2P3D',#334,#335,#336) ;
#341=AXIS2_PLACEMENT_3D('Circle Axis2P3D',#339,#340,$) ;
#346=AXIS2_PLACEMENT_3D('Circle Axis2P3D',#344,#345,$) ;
#359=AXIS2_PLACEMENT_3D('Plane Axis2P3D',#356,#357,#358) ;
#363=AXIS2_PLACEMENT_3D('Circle Axis2P3D',#361,#362,$) ;
#372=AXIS2_PLACEMENT_3D('Circle Axis2P3D',#370,#371,$) ;
#387=AXIS2_PLACEMENT_3D('Cylinder Axis2P3D',#384,#385,#386) ;
#398=AXIS2_PLACEMENT_3D('Circle Axis2P3D',#396,#397,$) ;
#417=AXIS2_PLACEMENT_3D('Circle Axis2P3D',#415,#416,$) ;
#430=AXIS2_PLACEMENT_3D('Cone Axis2P3D',#427,#428,#429) ;
#441=AXIS2_PLACEMENT_3D('Circle Axis2P3D',#439,#440,$) ;
#461=AXIS2_PLACEMENT_3D('Cone Axis2P3D',#458,#459,#460) ;
#465=AXIS2_PLACEMENT_3D('Circle Axis2P3D',#463,#464,$) ;
#478=AXIS2_PLACEMENT_3D('Cylinder Axis2P3D',#475,#476,#477) ;
#489=AXIS2_PLACEMENT_3D('Circle Axis2P3D',#487,#488,$) ;
#508=AXIS2_PLACEMENT_3D('Circle Axis2P3D',#506,#507,$) ;
#521=AXIS2_PLACEMENT_3D('Plane Axis2P3D',#518,#519,#520) ;
#531=AXIS2_PLACEMENT_3D('Cylinder Axis2P3D',#528,#529,#530) ;
#544=AXIS2_PLACEMENT_3D('Circle Axis2P3D',#542,#543,$) ;
#558=AXIS2_PLACEMENT_3D('Circle Axis2P3D',#556,#557,$) ;
#570=AXIS2_PLACEMENT_3D('Circle Axis2P3D',#568,#569,$) ;
#575=AXIS2_PLACEMENT_3D('Circle Axis2P3D',#573,#574,$) ;
#588=AXIS2_PLACEMENT_3D('Plane Axis2P3D',#585,#586,#587) ;
#632=AXIS2_PLACEMENT_3D('Cylinder Axis2P3D',#629,#630,#631) ;
#636=AXIS2_PLACEMENT_3D('Circle Axis2P3D',#634,#635,$) ;
#650=AXIS2_PLACEMENT_3D('Circle Axis2P3D',#648,#649,$) ;
#663=AXIS2_PLACEMENT_3D('Cylinder Axis2P3D',#660,#661,#662) ;
#667=AXIS2_PLACEMENT_3D('Circle Axis2P3D',#665,#666,$) ;
#674=AXIS2_PLACEMENT_3D('Circle Axis2P3D',#672,#673,$) ;
#694=AXIS2_PLACEMENT_3D('Cylinder Axis2P3D',#691,#692,#693) ;
#707=AXIS2_PLACEMENT_3D('Circle Axis2P3D',#705,#706,$) ;
#721=AXIS2_PLACEMENT_3D('Circle Axis2P3D',#719,#720,$) ;
#760=AXIS2_PLACEMENT_3D('Cylinder Axis2P3D',#757,#758,#759) ;
#764=AXIS2_PLACEMENT_3D('Circle Axis2P3D',#762,#763,$) ;
#778=AXIS2_PLACEMENT_3D('Circle Axis2P3D',#776,#777,$) ;
#791=AXIS2_PLACEMENT_3D('Sphere Axis2P3D',#788,#789,#790) ;
#795=AXIS2_PLACEMENT_3D('Circle Axis2P3D',#793,#794,$) ;
#800=AXIS2_PLACEMENT_3D('Circle Axis2P3D',#798,#799,$) ;
#812=AXIS2_PLACEMENT_3D('Cylinder Axis2P3D',#809,#810,#811) ;
#816=AXIS2_PLACEMENT_3D('Circle Axis2P3D',#814,#815,$) ;
#829=AXIS2_PLACEMENT_3D('Sphere Axis2P3D',#826,#827,#828) ;
#833=AXIS2_PLACEMENT_3D('Circle Axis2P3D',#831,#832,$) ;
#845=AXIS2_PLACEMENT_3D('Cylinder Axis2P3D',#842,#843,#844) ;
#887=AXIS2_PLACEMENT_3D('Cylinder Axis2P3D',#884,#885,#886) ;
#929=AXIS2_PLACEMENT_3D('Cylinder Axis2P3D',#926,#927,#928) ;
#933=AXIS2_PLACEMENT_3D('Circle Axis2P3D',#931,#932,$) ;
#949=AXIS2_PLACEMENT_3D('Circle Axis2P3D',#947,#948,$) ;
#969=AXIS2_PLACEMENT_3D('Cylinder Axis2P3D',#966,#967,#968) ;
#973=AXIS2_PLACEMENT_3D('Circle Axis2P3D',#971,#972,$) ;
#1011=AXIS2_PLACEMENT_3D('Plane Axis2P3D',#1008,#1009,#1010) ;
#1042=AXIS2_PLACEMENT_3D('Cylinder Axis2P3D',#1039,#1040,#1041) ;
#1046=AXIS2_PLACEMENT_3D('Circle Axis2P3D',#1044,#1045,$) ;
#1101=AXIS2_PLACEMENT_3D('Plane Axis2P3D',#1098,#1099,#1100) ;
#1105=AXIS2_PLACEMENT_3D('Circle Axis2P3D',#1103,#1104,$) ;
#1134=AXIS2_PLACEMENT_3D('Cylinder Axis2P3D',#1131,#1132,#1133) ;
#1145=AXIS2_PLACEMENT_3D('Circle Axis2P3D',#1143,#1144,$) ;
#1158=AXIS2_PLACEMENT_3D('Cylinder Axis2P3D',#1155,#1156,#1157) ;
#1162=AXIS2_PLACEMENT_3D('Circle Axis2P3D',#1160,#1161,$) ;
#1178=AXIS2_PLACEMENT_3D('Circle Axis2P3D',#1176,#1177,$) ;
#1198=AXIS2_PLACEMENT_3D('Plane Axis2P3D',#1195,#1196,#1197) ;
#1229=AXIS2_PLACEMENT_3D('Cylinder Axis2P3D',#1226,#1227,#1228) ;
#1233=AXIS2_PLACEMENT_3D('Circle Axis2P3D',#1231,#1232,$) ;
#1247=AXIS2_PLACEMENT_3D('Circle Axis2P3D',#1245,#1246,$) ;
#1260=AXIS2_PLACEMENT_3D('Plane Axis2P3D',#1257,#1258,#1259) ;
#1315=AXIS2_PLACEMENT_3D('Cylinder Axis2P3D',#1312,#1313,#1314) ;
#1319=AXIS2_PLACEMENT_3D('Circle Axis2P3D',#1317,#1318,$) ;
#1333=AXIS2_PLACEMENT_3D('Circle Axis2P3D',#1331,#1332,$) ;
#1346=AXIS2_PLACEMENT_3D('Plane Axis2P3D',#1343,#1344,#1345) ;
#1401=AXIS2_PLACEMENT_3D('Plane Axis2P3D',#1398,#1399,#1400) ;
#1432=AXIS2_PLACEMENT_3D('Cylinder Axis2P3D',#1429,#1430,#1431) ;
#1436=AXIS2_PLACEMENT_3D('Circle Axis2P3D',#1434,#1435,$) ;
#1441=AXIS2_PLACEMENT_3D('Circle Axis2P3D',#1439,#1440,$) ;
#1454=AXIS2_PLACEMENT_3D('Plane Axis2P3D',#1451,#1452,#1453) ;
#1468=AXIS2_PLACEMENT_3D('Circle Axis2P3D',#1466,#1467,$) ;
#1477=AXIS2_PLACEMENT_3D('Circle Axis2P3D',#1475,#1476,$) ;
#1488=AXIS2_PLACEMENT_3D('Plane Axis2P3D',#1485,#1486,#1487) ;
#1502=AXIS2_PLACEMENT_3D('Circle Axis2P3D',#1500,#1501,$) ;
#1511=AXIS2_PLACEMENT_3D('Circle Axis2P3D',#1509,#1510,$) ;
#1531=AXIS2_PLACEMENT_3D('Circle Axis2P3D',#1529,#1530,$) ;
#1540=AXIS2_PLACEMENT_3D('Circle Axis2P3D',#1538,#1539,$) ;
#1560=AXIS2_PLACEMENT_3D('Circle Axis2P3D',#1558,#1559,$) ;
#1569=AXIS2_PLACEMENT_3D('Circle Axis2P3D',#1567,#1568,$) ;
#1580=AXIS2_PLACEMENT_3D('Cylinder Axis2P3D',#1577,#1578,#1579) ;
#1609=AXIS2_PLACEMENT_3D('Cylinder Axis2P3D',#1606,#1607,#1608) ;
#1638=AXIS2_PLACEMENT_3D('Plane Axis2P3D',#1635,#1636,#1637) ;
#1687=AXIS2_PLACEMENT_3D('Plane Axis2P3D',#1684,#1685,#1686) ;
#1718=AXIS2_PLACEMENT_3D('Cylinder Axis2P3D',#1715,#1716,#1717) ;
#1754=AXIS2_PLACEMENT_3D('Plane Axis2P3D',#1751,#1752,#1753) ;
#1806=AXIS2_PLACEMENT_3D('Plane Axis2P3D',#1803,#1804,#1805) ;
#1830=AXIS2_PLACEMENT_3D('Plane Axis2P3D',#1827,#1828,#1829) ;
#1880=AXIS2_PLACEMENT_3D('Cylinder Axis2P3D',#1877,#1878,#1879) ;
#40=PRODUCT_DEFINITION_SHAPE(' ',' ',#14) ;
#31=APPROVAL_PERSON_ORGANIZATION(#25,#21,#19) ;
#25=PERSON_AND_ORGANIZATION(#22,#23) ;
#22=PERSON(' ',' ',' ',$,$,$) ;
#23=ORGANIZATION(' ',' ',' ') ;
#21=APPROVAL(#20,' ') ;
#20=APPROVAL_STATUS('not_yet_approved') ;
#19=APPROVAL_ROLE('APPROVER') ;
#13=DATE_AND_TIME(#11,#12) ;
#12=LOCAL_TIME(18,25,23.,#10) ;
#10=COORDINATED_UNIVERSAL_TIME_OFFSET(0,0,.AHEAD.) ;
#85=ORIENTED_EDGE('',*,*,#64,.F.) ;
#86=ORIENTED_EDGE('',*,*,#71,.T.) ;
#87=ORIENTED_EDGE('',*,*,#78,.T.) ;
#88=ORIENTED_EDGE('',*,*,#83,.F.) ;
#102=ORIENTED_EDGE('',*,*,#78,.F.) ;
#103=ORIENTED_EDGE('',*,*,#95,.T.) ;
#104=ORIENTED_EDGE('',*,*,#64,.T.) ;
#105=ORIENTED_EDGE('',*,*,#100,.F.) ;
#114=ORIENTED_EDGE('',*,*,#83,.T.) ;
#115=ORIENTED_EDGE('',*,*,#100,.T.) ;
#152=ORIENTED_EDGE('',*,*,#131,.F.) ;
#153=ORIENTED_EDGE('',*,*,#138,.T.) ;
#154=ORIENTED_EDGE('',*,*,#145,.T.) ;
#155=ORIENTED_EDGE('',*,*,#150,.F.) ;
#169=ORIENTED_EDGE('',*,*,#145,.F.) ;
#170=ORIENTED_EDGE('',*,*,#162,.T.) ;
#171=ORIENTED_EDGE('',*,*,#131,.T.) ;
#172=ORIENTED_EDGE('',*,*,#167,.F.) ;
#176=ORIENTED_EDGE('',*,*,#150,.T.) ;
#177=ORIENTED_EDGE('',*,*,#167,.T.) ;
#214=ORIENTED_EDGE('',*,*,#193,.F.) ;
#215=ORIENTED_EDGE('',*,*,#200,.T.) ;
#216=ORIENTED_EDGE('',*,*,#207,.T.) ;
#217=ORIENTED_EDGE('',*,*,#212,.F.) ;
#231=ORIENTED_EDGE('',*,*,#207,.F.) ;
#232=ORIENTED_EDGE('',*,*,#224,.T.) ;
#233=ORIENTED_EDGE('',*,*,#193,.T.) ;
#234=ORIENTED_EDGE('',*,*,#229,.F.) ;
#238=ORIENTED_EDGE('',*,*,#212,.T.) ;
#239=ORIENTED_EDGE('',*,*,#229,.T.) ;
#276=ORIENTED_EDGE('',*,*,#255,.T.) ;
#277=ORIENTED_EDGE('',*,*,#262,.F.) ;
#278=ORIENTED_EDGE('',*,*,#269,.F.) ;
#279=ORIENTED_EDGE('',*,*,#274,.T.) ;
#282=ORIENTED_EDGE('',*,*,#95,.F.) ;
#283=ORIENTED_EDGE('',*,*,#71,.F.) ;
#286=ORIENTED_EDGE('',*,*,#162,.F.) ;
#287=ORIENTED_EDGE('',*,*,#138,.F.) ;
#290=ORIENTED_EDGE('',*,*,#224,.F.) ;
#291=ORIENTED_EDGE('',*,*,#200,.F.) ;
#328=ORIENTED_EDGE('',*,*,#307,.T.) ;
#329=ORIENTED_EDGE('',*,*,#314,.T.) ;
#330=ORIENTED_EDGE('',*,*,#321,.F.) ;
#331=ORIENTED_EDGE('',*,*,#326,.F.) ;
#350=ORIENTED_EDGE('',*,*,#321,.T.) ;
#351=ORIENTED_EDGE('',*,*,#343,.T.) ;
#352=ORIENTED_EDGE('',*,*,#307,.F.) ;
#353=ORIENTED_EDGE('',*,*,#348,.F.) ;
#376=ORIENTED_EDGE('',*,*,#369,.T.) ;
#377=ORIENTED_EDGE('',*,*,#374,.T.) ;
#380=ORIENTED_EDGE('',*,*,#314,.F.) ;
#381=ORIENTED_EDGE('',*,*,#343,.F.) ;
#409=ORIENTED_EDGE('',*,*,#348,.T.) ;
#410=ORIENTED_EDGE('',*,*,#395,.T.) ;
#411=ORIENTED_EDGE('',*,*,#402,.F.) ;
#412=ORIENTED_EDGE('',*,*,#407,.F.) ;
#421=ORIENTED_EDGE('',*,*,#326,.T.) ;
#422=ORIENTED_EDGE('',*,*,#407,.T.) ;
#423=ORIENTED_EDGE('',*,*,#419,.F.) ;
#424=ORIENTED_EDGE('',*,*,#395,.F.) ;
#452=ORIENTED_EDGE('',*,*,#438,.T.) ;
#453=ORIENTED_EDGE('',*,*,#445,.T.) ;
#454=ORIENTED_EDGE('',*,*,#450,.F.) ;
#455=ORIENTED_EDGE('',*,*,#374,.F.) ;
#469=ORIENTED_EDGE('',*,*,#450,.T.) ;
#470=ORIENTED_EDGE('',*,*,#467,.T.) ;
#471=ORIENTED_EDGE('',*,*,#438,.F.) ;
#472=ORIENTED_EDGE('',*,*,#369,.F.) ;
#500=ORIENTED_EDGE('',*,*,#486,.F.) ;
#501=ORIENTED_EDGE('',*,*,#493,.T.) ;
#502=ORIENTED_EDGE('',*,*,#498,.T.) ;
#503=ORIENTED_EDGE('',*,*,#467,.F.) ;
#512=ORIENTED_EDGE('',*,*,#498,.F.) ;
#513=ORIENTED_EDGE('',*,*,#510,.T.) ;
#514=ORIENTED_EDGE('',*,*,#486,.T.) ;
#515=ORIENTED_EDGE('',*,*,#445,.F.) ;
#524=ORIENTED_EDGE('',*,*,#419,.T.) ;
#525=ORIENTED_EDGE('',*,*,#402,.T.) ;
#562=ORIENTED_EDGE('',*,*,#541,.F.) ;
#563=ORIENTED_EDGE('',*,*,#548,.T.) ;
#564=ORIENTED_EDGE('',*,*,#555,.T.) ;
#565=ORIENTED_EDGE('',*,*,#560,.F.) ;
#579=ORIENTED_EDGE('',*,*,#555,.F.) ;
#580=ORIENTED_EDGE('',*,*,#572,.T.) ;
#581=ORIENTED_EDGE('',*,*,#541,.T.) ;
#582=ORIENTED_EDGE('',*,*,#577,.F.) ;
#619=ORIENTED_EDGE('',*,*,#598,.T.) ;
#620=ORIENTED_EDGE('',*,*,#605,.T.) ;
#621=ORIENTED_EDGE('',*,*,#612,.T.) ;
#622=ORIENTED_EDGE('',*,*,#617,.F.) ;
#625=ORIENTED_EDGE('',*,*,#572,.F.) ;
#626=ORIENTED_EDGE('',*,*,#548,.F.) ;
#654=ORIENTED_EDGE('',*,*,#640,.T.) ;
#655=ORIENTED_EDGE('',*,*,#647,.F.) ;
#656=ORIENTED_EDGE('',*,*,#652,.T.) ;
#657=ORIENTED_EDGE('',*,*,#269,.T.) ;
#685=ORIENTED_EDGE('',*,*,#671,.T.) ;
#686=ORIENTED_EDGE('',*,*,#255,.F.) ;
#687=ORIENTED_EDGE('',*,*,#678,.T.) ;
#688=ORIENTED_EDGE('',*,*,#683,.T.) ;
#725=ORIENTED_EDGE('',*,*,#704,.F.) ;
#726=ORIENTED_EDGE('',*,*,#711,.T.) ;
#727=ORIENTED_EDGE('',*,*,#718,.T.) ;
#728=ORIENTED_EDGE('',*,*,#723,.F.) ;
#751=ORIENTED_EDGE('',*,*,#737,.F.) ;
#752=ORIENTED_EDGE('',*,*,#718,.F.) ;
#753=ORIENTED_EDGE('',*,*,#744,.T.) ;
#754=ORIENTED_EDGE('',*,*,#749,.T.) ;
#782=ORIENTED_EDGE('',*,*,#749,.F.) ;
#783=ORIENTED_EDGE('',*,*,#768,.T.) ;
#784=ORIENTED_EDGE('',*,*,#775,.T.) ;
#785=ORIENTED_EDGE('',*,*,#780,.F.) ;
#804=ORIENTED_EDGE('',*,*,#797,.T.) ;
#805=ORIENTED_EDGE('',*,*,#723,.T.) ;
#806=ORIENTED_EDGE('',*,*,#802,.F.) ;
#820=ORIENTED_EDGE('',*,*,#802,.T.) ;
#821=ORIENTED_EDGE('',*,*,#737,.T.) ;
#822=ORIENTED_EDGE('',*,*,#818,.F.) ;
#823=ORIENTED_EDGE('',*,*,#605,.F.) ;
#837=ORIENTED_EDGE('',*,*,#818,.T.) ;
#838=ORIENTED_EDGE('',*,*,#780,.T.) ;
#839=ORIENTED_EDGE('',*,*,#835,.F.) ;
#878=ORIENTED_EDGE('',*,*,#612,.F.) ;
#879=ORIENTED_EDGE('',*,*,#835,.T.) ;
#880=ORIENTED_EDGE('',*,*,#853,.T.) ;
#881=ORIENTED_EDGE('',*,*,#876,.T.) ;
#920=ORIENTED_EDGE('',*,*,#895,.T.) ;
#921=ORIENTED_EDGE('',*,*,#797,.F.) ;
#922=ORIENTED_EDGE('',*,*,#598,.F.) ;
#923=ORIENTED_EDGE('',*,*,#918,.T.) ;
#960=ORIENTED_EDGE('',*,*,#939,.T.) ;
#961=ORIENTED_EDGE('',*,*,#946,.F.) ;
#962=ORIENTED_EDGE('',*,*,#953,.T.) ;
#963=ORIENTED_EDGE('',*,*,#958,.T.) ;
#1002=ORIENTED_EDGE('',*,*,#979,.T.) ;
#1003=ORIENTED_EDGE('',*,*,#986,.F.) ;
#1004=ORIENTED_EDGE('',*,*,#995,.T.) ;
#1005=ORIENTED_EDGE('',*,*,#1000,.T.) ;
#1033=ORIENTED_EDGE('',*,*,#1021,.F.) ;
#1034=ORIENTED_EDGE('',*,*,#1026,.T.) ;
#1035=ORIENTED_EDGE('',*,*,#986,.T.) ;
#1036=ORIENTED_EDGE('',*,*,#1031,.F.) ;
#1066=ORIENTED_EDGE('',*,*,#1050,.T.) ;
#1067=ORIENTED_EDGE('',*,*,#1057,.F.) ;
#1068=ORIENTED_EDGE('',*,*,#1064,.T.) ;
#1069=ORIENTED_EDGE('',*,*,#1021,.T.) ;
#1092=ORIENTED_EDGE('',*,*,#1080,.F.) ;
#1093=ORIENTED_EDGE('',*,*,#1085,.T.) ;
#1094=ORIENTED_EDGE('',*,*,#946,.T.) ;
#1095=ORIENTED_EDGE('',*,*,#1090,.F.) ;
#1121=ORIENTED_EDGE('',*,*,#1109,.F.) ;
#1122=ORIENTED_EDGE('',*,*,#1090,.T.) ;
#1123=ORIENTED_EDGE('',*,*,#939,.F.) ;
#1124=ORIENTED_EDGE('',*,*,#1114,.T.) ;
#1125=ORIENTED_EDGE('',*,*,#678,.F.) ;
#1126=ORIENTED_EDGE('',*,*,#274,.F.) ;
#1127=ORIENTED_EDGE('',*,*,#652,.F.) ;
#1128=ORIENTED_EDGE('',*,*,#1119,.F.) ;
#1149=ORIENTED_EDGE('',*,*,#1109,.T.) ;
#1150=ORIENTED_EDGE('',*,*,#1142,.F.) ;
#1151=ORIENTED_EDGE('',*,*,#1147,.T.) ;
#1152=ORIENTED_EDGE('',*,*,#1080,.T.) ;
#1189=ORIENTED_EDGE('',*,*,#1168,.T.) ;
#1190=ORIENTED_EDGE('',*,*,#1175,.F.) ;
#1191=ORIENTED_EDGE('',*,*,#1182,.T.) ;
#1192=ORIENTED_EDGE('',*,*,#1187,.T.) ;
#1220=ORIENTED_EDGE('',*,*,#1208,.F.) ;
#1221=ORIENTED_EDGE('',*,*,#1213,.T.) ;
#1222=ORIENTED_EDGE('',*,*,#1175,.T.) ;
#1223=ORIENTED_EDGE('',*,*,#1218,.F.) ;
#1251=ORIENTED_EDGE('',*,*,#1237,.T.) ;
#1252=ORIENTED_EDGE('',*,*,#1244,.F.) ;
#1253=ORIENTED_EDGE('',*,*,#1249,.T.) ;
#1254=ORIENTED_EDGE('',*,*,#1208,.T.) ;
#1297=ORIENTED_EDGE('',*,*,#1270,.F.) ;
#1298=ORIENTED_EDGE('',*,*,#1275,.F.) ;
#1299=ORIENTED_EDGE('',*,*,#1000,.F.) ;
#1300=ORIENTED_EDGE('',*,*,#1280,.F.) ;
#1301=ORIENTED_EDGE('',*,*,#853,.F.) ;
#1302=ORIENTED_EDGE('',*,*,#775,.F.) ;
#1303=ORIENTED_EDGE('',*,*,#1285,.F.) ;
#1304=ORIENTED_EDGE('',*,*,#1187,.F.) ;
#1305=ORIENTED_EDGE('',*,*,#1290,.F.) ;
#1306=ORIENTED_EDGE('',*,*,#683,.F.) ;
#1307=ORIENTED_EDGE('',*,*,#1114,.F.) ;
#1308=ORIENTED_EDGE('',*,*,#958,.F.) ;
#1309=ORIENTED_EDGE('',*,*,#1295,.F.) ;
#1337=ORIENTED_EDGE('',*,*,#1323,.T.) ;
#1338=ORIENTED_EDGE('',*,*,#1330,.F.) ;
#1339=ORIENTED_EDGE('',*,*,#1335,.T.) ;
#1340=ORIENTED_EDGE('',*,*,#1270,.T.) ;
#1383=ORIENTED_EDGE('',*,*,#1354,.F.) ;
#1384=ORIENTED_EDGE('',*,*,#1142,.T.) ;
#1385=ORIENTED_EDGE('',*,*,#1119,.T.) ;
#1386=ORIENTED_EDGE('',*,*,#647,.T.) ;
#1387=ORIENTED_EDGE('',*,*,#1359,.F.) ;
#1388=ORIENTED_EDGE('',*,*,#1244,.T.) ;
#1389=ORIENTED_EDGE('',*,*,#1364,.F.) ;
#1390=ORIENTED_EDGE('',*,*,#704,.T.) ;
#1391=ORIENTED_EDGE('',*,*,#895,.F.) ;
#1392=ORIENTED_EDGE('',*,*,#1369,.T.) ;
#1393=ORIENTED_EDGE('',*,*,#1057,.T.) ;
#1394=ORIENTED_EDGE('',*,*,#1376,.F.) ;
#1395=ORIENTED_EDGE('',*,*,#1381,.T.) ;
#1423=ORIENTED_EDGE('',*,*,#1409,.T.) ;
#1424=ORIENTED_EDGE('',*,*,#1330,.T.) ;
#1425=ORIENTED_EDGE('',*,*,#1416,.F.) ;
#1426=ORIENTED_EDGE('',*,*,#1421,.F.) ;
#1445=ORIENTED_EDGE('',*,*,#1438,.T.) ;
#1446=ORIENTED_EDGE('',*,*,#1381,.F.) ;
#1447=ORIENTED_EDGE('',*,*,#1443,.T.) ;
#1448=ORIENTED_EDGE('',*,*,#1421,.T.) ;
#1457=ORIENTED_EDGE('',*,*,#1416,.T.) ;
#1458=ORIENTED_EDGE('',*,*,#1323,.F.) ;
#1459=ORIENTED_EDGE('',*,*,#1295,.T.) ;
#1460=ORIENTED_EDGE('',*,*,#953,.F.) ;
#1461=ORIENTED_EDGE('',*,*,#1085,.F.) ;
#1462=ORIENTED_EDGE('',*,*,#1147,.F.) ;
#1463=ORIENTED_EDGE('',*,*,#1354,.T.) ;
#1464=ORIENTED_EDGE('',*,*,#1438,.F.) ;
#1481=ORIENTED_EDGE('',*,*,#1474,.F.) ;
#1482=ORIENTED_EDGE('',*,*,#1479,.F.) ;
#1491=ORIENTED_EDGE('',*,*,#1376,.T.) ;
#1492=ORIENTED_EDGE('',*,*,#1050,.F.) ;
#1493=ORIENTED_EDGE('',*,*,#1031,.T.) ;
#1494=ORIENTED_EDGE('',*,*,#979,.F.) ;
#1495=ORIENTED_EDGE('',*,*,#1275,.T.) ;
#1496=ORIENTED_EDGE('',*,*,#1335,.F.) ;
#1497=ORIENTED_EDGE('',*,*,#1409,.F.) ;
#1498=ORIENTED_EDGE('',*,*,#1443,.F.) ;
#1515=ORIENTED_EDGE('',*,*,#1508,.F.) ;
#1516=ORIENTED_EDGE('',*,*,#1513,.F.) ;
#1520=ORIENTED_EDGE('',*,*,#1218,.T.) ;
#1521=ORIENTED_EDGE('',*,*,#1168,.F.) ;
#1522=ORIENTED_EDGE('',*,*,#1285,.T.) ;
#1523=ORIENTED_EDGE('',*,*,#768,.F.) ;
#1524=ORIENTED_EDGE('',*,*,#744,.F.) ;
#1525=ORIENTED_EDGE('',*,*,#711,.F.) ;
#1526=ORIENTED_EDGE('',*,*,#1364,.T.) ;
#1527=ORIENTED_EDGE('',*,*,#1237,.F.) ;
#1544=ORIENTED_EDGE('',*,*,#1537,.F.) ;
#1545=ORIENTED_EDGE('',*,*,#1542,.F.) ;
#1549=ORIENTED_EDGE('',*,*,#1359,.T.) ;
#1550=ORIENTED_EDGE('',*,*,#640,.F.) ;
#1551=ORIENTED_EDGE('',*,*,#262,.T.) ;
#1552=ORIENTED_EDGE('',*,*,#671,.F.) ;
#1553=ORIENTED_EDGE('',*,*,#1290,.T.) ;
#1554=ORIENTED_EDGE('',*,*,#1182,.F.) ;
#1555=ORIENTED_EDGE('',*,*,#1213,.F.) ;
#1556=ORIENTED_EDGE('',*,*,#1249,.F.) ;
#1573=ORIENTED_EDGE('',*,*,#1566,.F.) ;
#1574=ORIENTED_EDGE('',*,*,#1571,.F.) ;
#1593=ORIENTED_EDGE('',*,*,#1479,.T.) ;
#1594=ORIENTED_EDGE('',*,*,#1586,.F.) ;
#1595=ORIENTED_EDGE('',*,*,#1508,.T.) ;
#1596=ORIENTED_EDGE('',*,*,#1591,.T.) ;
#1600=ORIENTED_EDGE('',*,*,#1474,.T.) ;
#1601=ORIENTED_EDGE('',*,*,#1591,.F.) ;
#1602=ORIENTED_EDGE('',*,*,#1513,.T.) ;
#1603=ORIENTED_EDGE('',*,*,#1586,.T.) ;
#1622=ORIENTED_EDGE('',*,*,#1571,.T.) ;
#1623=ORIENTED_EDGE('',*,*,#1615,.F.) ;
#1624=ORIENTED_EDGE('',*,*,#1537,.T.) ;
#1625=ORIENTED_EDGE('',*,*,#1620,.T.) ;
#1629=ORIENTED_EDGE('',*,*,#1566,.T.) ;
#1630=ORIENTED_EDGE('',*,*,#1620,.F.) ;
#1631=ORIENTED_EDGE('',*,*,#1542,.T.) ;
#1632=ORIENTED_EDGE('',*,*,#1615,.T.) ;
#1669=ORIENTED_EDGE('',*,*,#1648,.F.) ;
#1670=ORIENTED_EDGE('',*,*,#1655,.T.) ;
#1671=ORIENTED_EDGE('',*,*,#1662,.T.) ;
#1672=ORIENTED_EDGE('',*,*,#1667,.F.) ;
#1676=ORIENTED_EDGE('',*,*,#560,.T.) ;
#1677=ORIENTED_EDGE('',*,*,#577,.T.) ;
#1680=ORIENTED_EDGE('',*,*,#510,.F.) ;
#1681=ORIENTED_EDGE('',*,*,#493,.F.) ;
#1709=ORIENTED_EDGE('',*,*,#1697,.F.) ;
#1710=ORIENTED_EDGE('',*,*,#1702,.F.) ;
#1711=ORIENTED_EDGE('',*,*,#1655,.F.) ;
#1712=ORIENTED_EDGE('',*,*,#1707,.F.) ;
#1745=ORIENTED_EDGE('',*,*,#1729,.T.) ;
#1746=ORIENTED_EDGE('',*,*,#1736,.F.) ;
#1747=ORIENTED_EDGE('',*,*,#1743,.T.) ;
#1748=ORIENTED_EDGE('',*,*,#1697,.T.) ;
#1757=ORIENTED_EDGE('',*,*,#1064,.F.) ;
#1758=ORIENTED_EDGE('',*,*,#1369,.F.) ;
#1759=ORIENTED_EDGE('',*,*,#918,.F.) ;
#1760=ORIENTED_EDGE('',*,*,#617,.T.) ;
#1761=ORIENTED_EDGE('',*,*,#876,.F.) ;
#1762=ORIENTED_EDGE('',*,*,#1280,.T.) ;
#1763=ORIENTED_EDGE('',*,*,#995,.F.) ;
#1764=ORIENTED_EDGE('',*,*,#1026,.F.) ;
#1795=ORIENTED_EDGE('',*,*,#1772,.F.) ;
#1796=ORIENTED_EDGE('',*,*,#1729,.F.) ;
#1797=ORIENTED_EDGE('',*,*,#1707,.T.) ;
#1798=ORIENTED_EDGE('',*,*,#1648,.T.) ;
#1799=ORIENTED_EDGE('',*,*,#1779,.F.) ;
#1800=ORIENTED_EDGE('',*,*,#1793,.F.) ;
#1821=ORIENTED_EDGE('',*,*,#1779,.T.) ;
#1822=ORIENTED_EDGE('',*,*,#1667,.T.) ;
#1823=ORIENTED_EDGE('',*,*,#1814,.T.) ;
#1824=ORIENTED_EDGE('',*,*,#1819,.T.) ;
#1845=ORIENTED_EDGE('',*,*,#1838,.F.) ;
#1846=ORIENTED_EDGE('',*,*,#1736,.T.) ;
#1847=ORIENTED_EDGE('',*,*,#1772,.T.) ;
#1848=ORIENTED_EDGE('',*,*,#1843,.F.) ;
#1869=ORIENTED_EDGE('',*,*,#1867,.F.) ;
#1870=ORIENTED_EDGE('',*,*,#1814,.F.) ;
#1871=ORIENTED_EDGE('',*,*,#1662,.F.) ;
#1872=ORIENTED_EDGE('',*,*,#1702,.T.) ;
#1873=ORIENTED_EDGE('',*,*,#1743,.F.) ;
#1874=ORIENTED_EDGE('',*,*,#1838,.T.) ;
#1883=ORIENTED_EDGE('',*,*,#1793,.T.) ;
#1884=ORIENTED_EDGE('',*,*,#1819,.F.) ;
#1885=ORIENTED_EDGE('',*,*,#1867,.T.) ;
#1886=ORIENTED_EDGE('',*,*,#1843,.T.) ;
#284=FACE_BOUND('',#281,.T.) ;
#288=FACE_BOUND('',#285,.T.) ;
#292=FACE_BOUND('',#289,.T.) ;
#382=FACE_BOUND('',#379,.T.) ;
#627=FACE_BOUND('',#624,.T.) ;
#1483=FACE_BOUND('',#1480,.T.) ;
#1517=FACE_BOUND('',#1514,.T.) ;
#1546=FACE_BOUND('',#1543,.T.) ;
#1575=FACE_BOUND('',#1572,.T.) ;
#1682=FACE_BOUND('',#1679,.T.) ;
#1801=FACE_BOUND('',#1794,.T.) ;
#50=CLOSED_SHELL('Closed Shell',(#90,#107,#117,#157,#174,#179,#219,#236,#241,#293,#333,#355,#383,#414,#426,#457,#474,#505,#517,#527,#567,#584,#628,#659,#690,#730,#756,#787,#808,#825,#841,#883,#925,#965,#1007,#1038,#1071,#1097,#1130,#1154,#1194,#1225,#1256,#1311,#1342,#1397,#1428,#1450,#1484,#1518,#1547,#1576,#1598,#1605,#1627,#1634,#1674,#1683,#1714,#1750,#1802,#1826,#1850,#1876,#1888)) ;
#58=VECTOR('Line Direction',#57,1.) ;
#74=VECTOR('Line Direction',#73,1.) ;
#125=VECTOR('Line Direction',#124,1.) ;
#141=VECTOR('Line Direction',#140,1.) ;
#187=VECTOR('Line Direction',#186,1.) ;
#203=VECTOR('Line Direction',#202,1.) ;
#249=VECTOR('Line Direction',#248,1.) ;
#258=VECTOR('Line Direction',#257,1.) ;
#265=VECTOR('Line Direction',#264,1.) ;
#272=VECTOR('Line Direction',#271,1.) ;
#301=VECTOR('Line Direction',#300,1.) ;
#317=VECTOR('Line Direction',#316,1.) ;
#391=VECTOR('Line Direction',#390,1.) ;
#405=VECTOR('Line Direction',#404,1.) ;
#434=VECTOR('Line Direction',#433,1.) ;
#448=VECTOR('Line Direction',#447,1.) ;
#482=VECTOR('Line Direction',#481,1.) ;
#496=VECTOR('Line Direction',#495,1.) ;
#535=VECTOR('Line Direction',#534,1.) ;
#551=VECTOR('Line Direction',#550,1.) ;
#592=VECTOR('Line Direction',#591,1.) ;
#601=VECTOR('Line Direction',#600,1.) ;
#608=VECTOR('Line Direction',#607,1.) ;
#615=VECTOR('Line Direction',#614,1.) ;
#643=VECTOR('Line Direction',#642,1.) ;
#681=VECTOR('Line Direction',#680,1.) ;
#698=VECTOR('Line Direction',#697,1.) ;
#714=VECTOR('Line Direction',#713,1.) ;
#733=VECTOR('Line Direction',#732,1.) ;
#740=VECTOR('Line Direction',#739,1.) ;
#747=VECTOR('Line Direction',#746,1.) ;
#771=VECTOR('Line Direction',#770,1.) ;
#849=VECTOR('Line Direction',#848,1.) ;
#891=VECTOR('Line Direction',#890,1.) ;
#942=VECTOR('Line Direction',#941,1.) ;
#956=VECTOR('Line Direction',#955,1.) ;
#982=VECTOR('Line Direction',#981,1.) ;
#998=VECTOR('Line Direction',#997,1.) ;
#1015=VECTOR('Line Direction',#1014,1.) ;
#1024=VECTOR('Line Direction',#1023,1.) ;
#1029=VECTOR('Line Direction',#1028,1.) ;
#1053=VECTOR('Line Direction',#1052,1.) ;
#1074=VECTOR('Line Direction',#1073,1.) ;
#1083=VECTOR('Line Direction',#1082,1.) ;
#1088=VECTOR('Line Direction',#1087,1.) ;
#1112=VECTOR('Line Direction',#1111,1.) ;
#1117=VECTOR('Line Direction',#1116,1.) ;
#1138=VECTOR('Line Direction',#1137,1.) ;
#1171=VECTOR('Line Direction',#1170,1.) ;
#1185=VECTOR('Line Direction',#1184,1.) ;
#1202=VECTOR('Line Direction',#1201,1.) ;
#1211=VECTOR('Line Direction',#1210,1.) ;
#1216=VECTOR('Line Direction',#1215,1.) ;
#1240=VECTOR('Line Direction',#1239,1.) ;
#1264=VECTOR('Line Direction',#1263,1.) ;
#1273=VECTOR('Line Direction',#1272,1.) ;
#1278=VECTOR('Line Direction',#1277,1.) ;
#1283=VECTOR('Line Direction',#1282,1.) ;
#1288=VECTOR('Line Direction',#1287,1.) ;
#1293=VECTOR('Line Direction',#1292,1.) ;
#1326=VECTOR('Line Direction',#1325,1.) ;
#1350=VECTOR('Line Direction',#1349,1.) ;
#1357=VECTOR('Line Direction',#1356,1.) ;
#1362=VECTOR('Line Direction',#1361,1.) ;
#1367=VECTOR('Line Direction',#1366,1.) ;
#1372=VECTOR('Line Direction',#1371,1.) ;
#1379=VECTOR('Line Direction',#1378,1.) ;
#1405=VECTOR('Line Direction',#1404,1.) ;
#1412=VECTOR('Line Direction',#1411,1.) ;
#1419=VECTOR('Line Direction',#1418,1.) ;
#1584=VECTOR('Line Direction',#1583,1.) ;
#1589=VECTOR('Line Direction',#1588,1.) ;
#1613=VECTOR('Line Direction',#1612,1.) ;
#1618=VECTOR('Line Direction',#1617,1.) ;
#1642=VECTOR('Line Direction',#1641,1.) ;
#1651=VECTOR('Line Direction',#1650,1.) ;
#1658=VECTOR('Line Direction',#1657,1.) ;
#1665=VECTOR('Line Direction',#1664,1.) ;
#1691=VECTOR('Line Direction',#1690,1.) ;
#1700=VECTOR('Line Direction',#1699,1.) ;
#1705=VECTOR('Line Direction',#1704,1.) ;
#1732=VECTOR('Line Direction',#1731,1.) ;
#1768=VECTOR('Line Direction',#1767,1.) ;
#1775=VECTOR('Line Direction',#1774,1.) ;
#1810=VECTOR('Line Direction',#1809,1.) ;
#1817=VECTOR('Line Direction',#1816,1.) ;
#1834=VECTOR('Line Direction',#1833,1.) ;
#1841=VECTOR('Line Direction',#1840,1.) ;
#1890=ADVANCED_BREP_SHAPE_REPRESENTATION('NONE',(#1889),#45) ;
#48=SHAPE_REPRESENTATION(' ',(#47),#45) ;
#90=ADVANCED_FACE('\X2\04220435043B043E\X0\ \X2\0434043504420430043B0438\X0\',(#89),#55,.T.) ;
#107=ADVANCED_FACE('\X2\04220435043B043E\X0\ \X2\0434043504420430043B0438\X0\',(#106),#55,.T.) ;
#117=ADVANCED_FACE('\X2\04220435043B043E\X0\ \X2\0434043504420430043B0438\X0\',(#116),#112,.T.) ;
#157=ADVANCED_FACE('\X2\04220435043B043E\X0\ \X2\0434043504420430043B0438\X0\',(#156),#122,.T.) ;
#174=ADVANCED_FACE('\X2\04220435043B043E\X0\ \X2\0434043504420430043B0438\X0\',(#173),#122,.T.) ;
#179=ADVANCED_FACE('\X2\04220435043B043E\X0\ \X2\0434043504420430043B0438\X0\',(#178),#112,.T.) ;
#219=ADVANCED_FACE('\X2\04220435043B043E\X0\ \X2\0434043504420430043B0438\X0\',(#218),#184,.T.) ;
#236=ADVANCED_FACE('\X2\04220435043B043E\X0\ \X2\0434043504420430043B0438\X0\',(#235),#184,.T.) ;
#241=ADVANCED_FACE('\X2\04220435043B043E\X0\ \X2\0434043504420430043B0438\X0\',(#240),#112,.T.) ;
#293=ADVANCED_FACE('\X2\04220435043B043E\X0\ \X2\0434043504420430043B0438\X0\',(#280,#284,#288,#292),#246,.F.) ;
#333=ADVANCED_FACE('\X2\04220435043B043E\X0\ \X2\0434043504420430043B0438\X0\',(#332),#298,.F.) ;
#355=ADVANCED_FACE('\X2\04220435043B043E\X0\ \X2\0434043504420430043B0438\X0\',(#354),#338,.F.) ;
#383=ADVANCED_FACE('\X2\04220435043B043E\X0\ \X2\0434043504420430043B0438\X0\',(#378,#382),#360,.T.) ;
#414=ADVANCED_FACE('\X2\04220435043B043E\X0\ \X2\0434043504420430043B0438\X0\',(#413),#388,.F.) ;
#426=ADVANCED_FACE('\X2\04220435043B043E\X0\ \X2\0434043504420430043B0438\X0\',(#425),#388,.F.) ;
#457=ADVANCED_FACE('\X2\04220435043B043E\X0\ \X2\0434043504420430043B0438\X0\',(#456),#431,.T.) ;
#474=ADVANCED_FACE('\X2\04220435043B043E\X0\ \X2\0434043504420430043B0438\X0\',(#473),#462,.T.) ;
#505=ADVANCED_FACE('\X2\04220435043B043E\X0\ \X2\0434043504420430043B0438\X0\',(#504),#479,.T.) ;
#517=ADVANCED_FACE('\X2\04220435043B043E\X0\ \X2\0434043504420430043B0438\X0\',(#516),#479,.T.) ;
#527=ADVANCED_FACE('\X2\04220435043B043E\X0\ \X2\0434043504420430043B0438\X0\',(#526),#522,.T.) ;
#567=ADVANCED_FACE('\X2\04220435043B043E\X0\ \X2\0434043504420430043B0438\X0\',(#566),#532,.T.) ;
#584=ADVANCED_FACE('\X2\04220435043B043E\X0\ \X2\0434043504420430043B0438\X0\',(#583),#532,.T.) ;
#628=ADVANCED_FACE('\X2\04220435043B043E\X0\ \X2\0434043504420430043B0438\X0\',(#623,#627),#589,.F.) ;
#659=ADVANCED_FACE('\X2\04220435043B043E\X0\ \X2\0434043504420430043B0438\X0\',(#658),#633,.T.) ;
#690=ADVANCED_FACE('\X2\04220435043B043E\X0\ \X2\0434043504420430043B0438\X0\',(#689),#664,.T.) ;
#730=ADVANCED_FACE('\X2\04220435043B043E\X0\ \X2\0434043504420430043B0438\X0\',(#729),#695,.T.) ;
#756=ADVANCED_FACE('\X2\04220435043B043E\X0\ \X2\0434043504420430043B0438\X0\',(#755),#246,.F.) ;
#787=ADVANCED_FACE('\X2\04220435043B043E\X0\ \X2\0434043504420430043B0438\X0\',(#786),#761,.T.) ;
#808=ADVANCED_FACE('\X2\04220435043B043E\X0\ \X2\0434043504420430043B0438\X0\',(#807),#792,.T.) ;
#825=ADVANCED_FACE('\X2\04220435043B043E\X0\ \X2\0434043504420430043B0438\X0\',(#824),#813,.T.) ;
#841=ADVANCED_FACE('\X2\04220435043B043E\X0\ \X2\0434043504420430043B0438\X0\',(#840),#830,.T.) ;
#883=ADVANCED_FACE('\X2\04220435043B043E\X0\ \X2\0434043504420430043B0438\X0\',(#882),#846,.T.) ;
#925=ADVANCED_FACE('\X2\04220435043B043E\X0\ \X2\0434043504420430043B0438\X0\',(#924),#888,.T.) ;
#965=ADVANCED_FACE('\X2\04220435043B043E\X0\ \X2\0434043504420430043B0438\X0\',(#964),#930,.T.) ;
#1007=ADVANCED_FACE('\X2\04220435043B043E\X0\ \X2\0434043504420430043B0438\X0\',(#1006),#970,.T.) ;
#1038=ADVANCED_FACE('\X2\04220435043B043E\X0\ \X2\0434043504420430043B0438\X0\',(#1037),#1012,.F.) ;
#1071=ADVANCED_FACE('\X2\04220435043B043E\X0\ \X2\0434043504420430043B0438\X0\',(#1070),#1043,.T.) ;
#1097=ADVANCED_FACE('\X2\04220435043B043E\X0\ \X2\0434043504420430043B0438\X0\',(#1096),#1012,.F.) ;
#1130=ADVANCED_FACE('\X2\04220435043B043E\X0\ \X2\0434043504420430043B0438\X0\',(#1129),#1102,.F.) ;
#1154=ADVANCED_FACE('\X2\04220435043B043E\X0\ \X2\0434043504420430043B0438\X0\',(#1153),#1135,.T.) ;
#1194=ADVANCED_FACE('\X2\04220435043B043E\X0\ \X2\0434043504420430043B0438\X0\',(#1193),#1159,.T.) ;
#1225=ADVANCED_FACE('\X2\04220435043B043E\X0\ \X2\0434043504420430043B0438\X0\',(#1224),#1199,.F.) ;
#1256=ADVANCED_FACE('\X2\04220435043B043E\X0\ \X2\0434043504420430043B0438\X0\',(#1255),#1230,.T.) ;
#1311=ADVANCED_FACE('\X2\04220435043B043E\X0\ \X2\0434043504420430043B0438\X0\',(#1310),#1261,.F.) ;
#1342=ADVANCED_FACE('\X2\04220435043B043E\X0\ \X2\0434043504420430043B0438\X0\',(#1341),#1316,.T.) ;
#1397=ADVANCED_FACE('\X2\04220435043B043E\X0\ \X2\0434043504420430043B0438\X0\',(#1396),#1347,.T.) ;
#1428=ADVANCED_FACE('\X2\04220435043B043E\X0\ \X2\0434043504420430043B0438\X0\',(#1427),#1402,.T.) ;
#1450=ADVANCED_FACE('\X2\04220435043B043E\X0\ \X2\0434043504420430043B0438\X0\',(#1449),#1433,.T.) ;
#1484=ADVANCED_FACE('\X2\04220435043B043E\X0\ \X2\0434043504420430043B0438\X0\',(#1465,#1483),#1455,.T.) ;
#1518=ADVANCED_FACE('\X2\04220435043B043E\X0\ \X2\0434043504420430043B0438\X0\',(#1499,#1517),#1489,.T.) ;
#1547=ADVANCED_FACE('\X2\04220435043B043E\X0\ \X2\0434043504420430043B0438\X0\',(#1528,#1546),#1489,.T.) ;
#1576=ADVANCED_FACE('\X2\04220435043B043E\X0\ \X2\0434043504420430043B0438\X0\',(#1557,#1575),#1455,.T.) ;
#1598=ADVANCED_FACE('\X2\04220435043B043E\X0\ \X2\0434043504420430043B0438\X0\',(#1597),#1581,.F.) ;
#1605=ADVANCED_FACE('\X2\04220435043B043E\X0\ \X2\0434043504420430043B0438\X0\',(#1604),#1581,.F.) ;
#1627=ADVANCED_FACE('\X2\04220435043B043E\X0\ \X2\0434043504420430043B0438\X0\',(#1626),#1610,.F.) ;
#1634=ADVANCED_FACE('\X2\04220435043B043E\X0\ \X2\0434043504420430043B0438\X0\',(#1633),#1610,.F.) ;
#1674=ADVANCED_FACE('\X2\04220435043B043E\X0\ \X2\0434043504420430043B0438\X0\',(#1673),#1639,.F.) ;
#1683=ADVANCED_FACE('\X2\04220435043B043E\X0\ \X2\0434043504420430043B0438\X0\',(#1678,#1682),#522,.T.) ;
#1714=ADVANCED_FACE('\X2\04220435043B043E\X0\ \X2\0434043504420430043B0438\X0\',(#1713),#1688,.F.) ;
#1750=ADVANCED_FACE('\X2\04220435043B043E\X0\ \X2\0434043504420430043B0438\X0\',(#1749),#1719,.T.) ;
#1802=ADVANCED_FACE('\X2\04220435043B043E\X0\ \X2\0434043504420430043B0438\X0\',(#1765,#1801),#1755,.F.) ;
#1826=ADVANCED_FACE('\X2\04220435043B043E\X0\ \X2\0434043504420430043B0438\X0\',(#1825),#1807,.T.) ;
#1850=ADVANCED_FACE('\X2\04220435043B043E\X0\ \X2\0434043504420430043B0438\X0\',(#1849),#1831,.T.) ;
#1876=ADVANCED_FACE('\X2\04220435043B043E\X0\ \X2\0434043504420430043B0438\X0\',(#1875),#589,.F.) ;
#1888=ADVANCED_FACE('\X2\04220435043B043E\X0\ \X2\0434043504420430043B0438\X0\',(#1887),#1881,.T.) ;
#4=APPLICATION_PROTOCOL_DEFINITION('international standard','config_control_design',1994,#1) ;
#32=APPROVAL_DATE_TIME(#13,#21) ;
#854=B_SPLINE_CURVE_WITH_KNOTS('',5,(#855,#856,#857,#858,#859,#860,#861,#862,#863,#864,#865,#866,#867,#868,#869,#870,#871,#872,#873,#874,#875),.UNSPECIFIED.,.F.,.U.,(6,3,3,3,3,3,6),(0.,0.0752203161104,0.198950943053,0.350378932445,0.76029272903,1.3196731056,2.68414051352),.UNSPECIFIED.) ;
#896=B_SPLINE_CURVE_WITH_KNOTS('',5,(#897,#898,#899,#900,#901,#902,#903,#904,#905,#906,#907,#908,#909,#910,#911,#912,#913,#914,#915,#916,#917),.UNSPECIFIED.,.F.,.U.,(6,3,3,3,3,3,6),(0.,0.0752203161104,0.198950943053,0.350378932445,0.760292729019,1.31967310559,2.68414051352),.UNSPECIFIED.) ;
#987=B_SPLINE_CURVE_WITH_KNOTS('',4,(#988,#989,#990,#991,#992),.UNSPECIFIED.,.F.,.U.,(5,5),(0.,1.13524297383),.UNSPECIFIED.) ;
#1058=B_SPLINE_CURVE_WITH_KNOTS('',4,(#1059,#1060,#1061,#1062,#1063),.UNSPECIFIED.,.F.,.U.,(5,5),(0.,1.13524297384),.UNSPECIFIED.) ;
#1720=B_SPLINE_CURVE_WITH_KNOTS('',5,(#1721,#1722,#1723,#1724,#1725,#1726),.UNSPECIFIED.,.F.,.U.,(6,6),(0.,1.19475453147),.UNSPECIFIED.) ;
#1737=B_SPLINE_CURVE_WITH_KNOTS('',4,(#1738,#1739,#1740,#1741,#1742),.UNSPECIFIED.,.F.,.U.,(5,5),(0.,1.12486763232),.UNSPECIFIED.) ;
#1780=B_SPLINE_CURVE_WITH_KNOTS('',5,(#1781,#1782,#1783,#1784,#1785,#1786,#1787,#1788,#1789,#1790,#1791,#1792),.UNSPECIFIED.,.F.,.U.,(6,3,3,6),(0.,0.507008584668,0.867499629865,1.19475453145),.UNSPECIFIED.) ;
#1851=B_SPLINE_CURVE_WITH_KNOTS('',5,(#1852,#1853,#1854,#1855,#1856,#1857,#1858,#1859,#1860,#1861,#1862,#1863,#1864,#1865,#1866),.UNSPECIFIED.,.F.,.U.,(6,3,3,3,6),(0.,0.335084046011,0.673149543336,1.01480086194,1.12486763233),.UNSPECIFIED.) ;
#1889=MANIFOLD_SOLID_BREP('\X2\04220435043B043E\X0\ \X2\0434043504420430043B0438\X0\',#50) ;
#11=CALENDAR_DATE(2022,20,5) ;
#30=CC_DESIGN_APPROVAL(#21,(#16,#6,#14)) ;
#18=CC_DESIGN_DATE_AND_TIME_ASSIGNMENT(#13,#17,(#16)) ;
#29=CC_DESIGN_DATE_AND_TIME_ASSIGNMENT(#13,#28,(#14)) ;
#17=DATE_TIME_ROLE('classification_date') ;
#28=DATE_TIME_ROLE('creation_date') ;
#27=CC_DESIGN_PERSON_AND_ORGANIZATION_ASSIGNMENT(#25,#26,(#16)) ;
#33=CC_DESIGN_PERSON_AND_ORGANIZATION_ASSIGNMENT(#25,#34,(#6)) ;
#35=CC_DESIGN_PERSON_AND_ORGANIZATION_ASSIGNMENT(#25,#36,(#6,#14)) ;
#37=CC_DESIGN_PERSON_AND_ORGANIZATION_ASSIGNMENT(#25,#38,(#5)) ;
#26=PERSON_AND_ORGANIZATION_ROLE('classification_officer') ;
#34=PERSON_AND_ORGANIZATION_ROLE('design_supplier') ;
#36=PERSON_AND_ORGANIZATION_ROLE('creator') ;
#38=PERSON_AND_ORGANIZATION_ROLE('design_owner') ;
#39=CC_DESIGN_SECURITY_CLASSIFICATION(#16,(#6)) ;
#68=CIRCLE('generated circle',#67,0.5) ;
#82=CIRCLE('generated circle',#81,0.5) ;
#94=CIRCLE('generated circle',#93,0.5) ;
#99=CIRCLE('generated circle',#98,0.5) ;
#135=CIRCLE('generated circle',#134,0.5) ;
#149=CIRCLE('generated circle',#148,0.5) ;
#161=CIRCLE('generated circle',#160,0.5) ;
#166=CIRCLE('generated circle',#165,0.5) ;
#197=CIRCLE('generated circle',#196,0.5) ;
#211=CIRCLE('generated circle',#210,0.5) ;
#223=CIRCLE('generated circle',#222,0.5) ;
#228=CIRCLE('generated circle',#227,0.5) ;
#311=CIRCLE('generated circle',#310,1.05) ;
#325=CIRCLE('generated circle',#324,0.75) ;
#342=CIRCLE('generated circle',#341,1.05) ;
#347=CIRCLE('generated circle',#346,0.75) ;
#364=CIRCLE('generated circle',#363,2.2) ;
#373=CIRCLE('generated circle',#372,2.2) ;
#399=CIRCLE('generated circle',#398,0.75) ;
#418=CIRCLE('generated circle',#417,0.75) ;
#442=CIRCLE('generated circle',#441,2.5) ;
#466=CIRCLE('generated circle',#465,2.5) ;
#490=CIRCLE('generated circle',#489,2.5) ;
#509=CIRCLE('generated circle',#508,2.5) ;
#545=CIRCLE('generated circle',#544,4.) ;
#559=CIRCLE('generated circle',#558,4.) ;
#571=CIRCLE('generated circle',#570,4.) ;
#576=CIRCLE('generated circle',#575,4.) ;
#637=CIRCLE('generated circle',#636,0.5) ;
#651=CIRCLE('generated circle',#650,0.5) ;
#668=CIRCLE('generated circle',#667,0.5) ;
#675=CIRCLE('generated circle',#674,0.5) ;
#708=CIRCLE('generated circle',#707,0.5) ;
#722=CIRCLE('generated circle',#721,0.5) ;
#765=CIRCLE('generated circle',#764,0.5) ;
#779=CIRCLE('generated circle',#778,0.5) ;
#796=CIRCLE('generated circle',#795,0.5) ;
#801=CIRCLE('generated circle',#800,0.5) ;
#817=CIRCLE('generated circle',#816,0.5) ;
#834=CIRCLE('generated circle',#833,0.5) ;
#934=CIRCLE('generated circle',#933,0.5) ;
#950=CIRCLE('generated circle',#949,0.5) ;
#974=CIRCLE('generated circle',#973,0.5) ;
#1047=CIRCLE('generated circle',#1046,0.5) ;
#1106=CIRCLE('generated circle',#1105,0.5) ;
#1146=CIRCLE('generated circle',#1145,0.5) ;
#1163=CIRCLE('generated circle',#1162,1.) ;
#1179=CIRCLE('generated circle',#1178,1.) ;
#1234=CIRCLE('generated circle',#1233,1.) ;
#1248=CIRCLE('generated circle',#1247,1.) ;
#1320=CIRCLE('generated circle',#1319,1.) ;
#1334=CIRCLE('generated circle',#1333,1.) ;
#1437=CIRCLE('generated circle',#1436,1.) ;
#1442=CIRCLE('generated circle',#1441,1.) ;
#1469=CIRCLE('generated circle',#1468,1.) ;
#1478=CIRCLE('generated circle',#1477,1.) ;
#1503=CIRCLE('generated circle',#1502,1.) ;
#1512=CIRCLE('generated circle',#1511,1.) ;
#1532=CIRCLE('generated circle',#1531,1.) ;
#1541=CIRCLE('generated circle',#1540,1.) ;
#1561=CIRCLE('generated circle',#1560,1.) ;
#1570=CIRCLE('generated circle',#1569,1.) ;
#298=CONICAL_SURFACE('Cone',#297,0.,0.785398163397) ;
#338=CONICAL_SURFACE('Cone',#337,0.,0.785398163397) ;
#431=CONICAL_SURFACE('Cone',#430,0.,0.785398163397) ;
#462=CONICAL_SURFACE('Cone',#461,0.,0.785398163397) ;
#1891=SHAPE_REPRESENTATION_RELATIONSHIP(' ',' ',#48,#1890) ;
#55=CYLINDRICAL_SURFACE('generated cylinder',#54,0.5) ;
#122=CYLINDRICAL_SURFACE('generated cylinder',#121,0.5) ;
#184=CYLINDRICAL_SURFACE('generated cylinder',#183,0.5) ;
#388=CYLINDRICAL_SURFACE('generated cylinder',#387,0.75) ;
#479=CYLINDRICAL_SURFACE('generated cylinder',#478,2.5) ;
#532=CYLINDRICAL_SURFACE('generated cylinder',#531,4.) ;
#633=CYLINDRICAL_SURFACE('generated cylinder',#632,0.5) ;
#664=CYLINDRICAL_SURFACE('generated cylinder',#663,0.5) ;
#695=CYLINDRICAL_SURFACE('generated cylinder',#694,0.5) ;
#761=CYLINDRICAL_SURFACE('generated cylinder',#760,0.5) ;
#813=CYLINDRICAL_SURFACE('generated cylinder',#812,0.5) ;
#846=CYLINDRICAL_SURFACE('generated cylinder',#845,0.5) ;
#888=CYLINDRICAL_SURFACE('generated cylinder',#887,0.5) ;
#930=CYLINDRICAL_SURFACE('generated cylinder',#929,0.5) ;
#970=CYLINDRICAL_SURFACE('generated cylinder',#969,0.5) ;
#1043=CYLINDRICAL_SURFACE('generated cylinder',#1042,0.5) ;
#1135=CYLINDRICAL_SURFACE('generated cylinder',#1134,0.5) ;
#1159=CYLINDRICAL_SURFACE('generated cylinder',#1158,1.) ;
#1230=CYLINDRICAL_SURFACE('generated cylinder',#1229,1.) ;
#1316=CYLINDRICAL_SURFACE('generated cylinder',#1315,1.) ;
#1433=CYLINDRICAL_SURFACE('generated cylinder',#1432,1.) ;
#1581=CYLINDRICAL_SURFACE('generated cylinder',#1580,1.) ;
#1610=CYLINDRICAL_SURFACE('generated cylinder',#1609,1.) ;
#1719=CYLINDRICAL_SURFACE('generated cylinder',#1718,0.5) ;
#1881=CYLINDRICAL_SURFACE('generated cylinder',#1880,0.5) ;
#3=DESIGN_CONTEXT(' ',#1,'design') ;
#64=EDGE_CURVE('',#61,#63,#59,.T.) ;
#71=EDGE_CURVE('',#61,#70,#68,.T.) ;
#78=EDGE_CURVE('',#70,#77,#75,.T.) ;
#83=EDGE_CURVE('',#63,#77,#82,.T.) ;
#95=EDGE_CURVE('',#70,#61,#94,.T.) ;
#100=EDGE_CURVE('',#77,#63,#99,.T.) ;
#131=EDGE_CURVE('',#128,#130,#126,.T.) ;
#138=EDGE_CURVE('',#128,#137,#135,.T.) ;
#145=EDGE_CURVE('',#137,#144,#142,.T.) ;
#150=EDGE_CURVE('',#130,#144,#149,.T.) ;
#162=EDGE_CURVE('',#137,#128,#161,.T.) ;
#167=EDGE_CURVE('',#144,#130,#166,.T.) ;
#193=EDGE_CURVE('',#190,#192,#188,.T.) ;
#200=EDGE_CURVE('',#190,#199,#197,.T.) ;
#207=EDGE_CURVE('',#199,#206,#204,.T.) ;
#212=EDGE_CURVE('',#192,#206,#211,.T.) ;
#224=EDGE_CURVE('',#199,#190,#223,.T.) ;
#229=EDGE_CURVE('',#206,#192,#228,.T.) ;
#255=EDGE_CURVE('',#252,#254,#250,.T.) ;
#262=EDGE_CURVE('',#261,#254,#259,.T.) ;
#269=EDGE_CURVE('',#268,#261,#266,.T.) ;
#274=EDGE_CURVE('',#268,#252,#273,.T.) ;
#307=EDGE_CURVE('',#304,#306,#302,.T.) ;
#314=EDGE_CURVE('',#306,#313,#311,.T.) ;
#321=EDGE_CURVE('',#320,#313,#318,.T.) ;
#326=EDGE_CURVE('',#304,#320,#325,.T.) ;
#343=EDGE_CURVE('',#313,#306,#342,.T.) ;
#348=EDGE_CURVE('',#320,#304,#347,.T.) ;
#369=EDGE_CURVE('',#366,#368,#364,.T.) ;
#374=EDGE_CURVE('',#368,#366,#373,.T.) ;
#395=EDGE_CURVE('',#304,#394,#392,.F.) ;
#402=EDGE_CURVE('',#401,#394,#399,.T.) ;
#407=EDGE_CURVE('',#320,#401,#406,.F.) ;
#419=EDGE_CURVE('',#394,#401,#418,.T.) ;
#438=EDGE_CURVE('',#368,#437,#435,.T.) ;
#445=EDGE_CURVE('',#437,#444,#442,.T.) ;
#450=EDGE_CURVE('',#366,#444,#449,.T.) ;
#467=EDGE_CURVE('',#444,#437,#466,.T.) ;
#486=EDGE_CURVE('',#485,#444,#483,.T.) ;
#493=EDGE_CURVE('',#485,#492,#490,.T.) ;
#498=EDGE_CURVE('',#492,#437,#497,.T.) ;
#510=EDGE_CURVE('',#492,#485,#509,.T.) ;
#541=EDGE_CURVE('',#538,#540,#536,.T.) ;
#548=EDGE_CURVE('',#538,#547,#545,.T.) ;
#555=EDGE_CURVE('',#547,#554,#552,.T.) ;
#560=EDGE_CURVE('',#540,#554,#559,.T.) ;
#572=EDGE_CURVE('',#547,#538,#571,.T.) ;
#577=EDGE_CURVE('',#554,#540,#576,.T.) ;
#598=EDGE_CURVE('',#595,#597,#593,.T.) ;
#605=EDGE_CURVE('',#597,#604,#602,.T.) ;
#612=EDGE_CURVE('',#604,#611,#609,.F.) ;
#617=EDGE_CURVE('',#595,#611,#616,.T.) ;
#640=EDGE_CURVE('',#261,#639,#637,.F.) ;
#647=EDGE_CURVE('',#646,#639,#644,.T.) ;
#652=EDGE_CURVE('',#646,#268,#651,.T.) ;
#671=EDGE_CURVE('',#670,#254,#668,.F.) ;
#678=EDGE_CURVE('',#252,#677,#675,.T.) ;
#683=EDGE_CURVE('',#677,#670,#682,.T.) ;
#704=EDGE_CURVE('',#701,#703,#699,.T.) ;
#711=EDGE_CURVE('',#701,#710,#708,.T.) ;
#718=EDGE_CURVE('',#710,#717,#715,.T.) ;
#723=EDGE_CURVE('',#703,#717,#722,.T.) ;
#737=EDGE_CURVE('',#717,#736,#734,.T.) ;
#744=EDGE_CURVE('',#710,#743,#741,.T.) ;
#749=EDGE_CURVE('',#743,#736,#748,.T.) ;
#768=EDGE_CURVE('',#743,#767,#765,.T.) ;
#775=EDGE_CURVE('',#767,#774,#772,.T.) ;
#780=EDGE_CURVE('',#736,#774,#779,.T.) ;
#797=EDGE_CURVE('',#597,#703,#796,.F.) ;
#802=EDGE_CURVE('',#597,#717,#801,.F.) ;
#818=EDGE_CURVE('',#604,#736,#817,.T.) ;
#835=EDGE_CURVE('',#604,#774,#834,.F.) ;
#853=EDGE_CURVE('',#774,#852,#850,.F.) ;
#876=EDGE_CURVE('',#852,#611,#854,.F.) ;
#895=EDGE_CURVE('',#894,#703,#892,.T.) ;
#918=EDGE_CURVE('',#595,#894,#896,.T.) ;
#939=EDGE_CURVE('',#936,#938,#934,.F.) ;
#946=EDGE_CURVE('',#945,#938,#943,.T.) ;
#953=EDGE_CURVE('',#945,#952,#950,.T.) ;
#958=EDGE_CURVE('',#952,#936,#957,.T.) ;
#979=EDGE_CURVE('',#976,#978,#974,.F.) ;
#986=EDGE_CURVE('',#985,#978,#983,.T.) ;
#995=EDGE_CURVE('',#985,#994,#987,.T.) ;
#1000=EDGE_CURVE('',#994,#976,#999,.T.) ;
#1021=EDGE_CURVE('',#1018,#1020,#1016,.T.) ;
#1026=EDGE_CURVE('',#1018,#985,#1025,.T.) ;
#1031=EDGE_CURVE('',#1020,#978,#1030,.T.) ;
#1050=EDGE_CURVE('',#1020,#1049,#1047,.F.) ;
#1057=EDGE_CURVE('',#1056,#1049,#1054,.T.) ;
#1064=EDGE_CURVE('',#1056,#1018,#1058,.F.) ;
#1080=EDGE_CURVE('',#1077,#1079,#1075,.T.) ;
#1085=EDGE_CURVE('',#1077,#945,#1084,.T.) ;
#1090=EDGE_CURVE('',#1079,#938,#1089,.T.) ;
#1109=EDGE_CURVE('',#1079,#1108,#1106,.T.) ;
#1114=EDGE_CURVE('',#936,#677,#1113,.T.) ;
#1119=EDGE_CURVE('',#1108,#646,#1118,.T.) ;
#1142=EDGE_CURVE('',#1141,#1108,#1139,.T.) ;
#1147=EDGE_CURVE('',#1141,#1077,#1146,.T.) ;
#1168=EDGE_CURVE('',#1165,#1167,#1163,.F.) ;
#1175=EDGE_CURVE('',#1174,#1167,#1172,.T.) ;
#1182=EDGE_CURVE('',#1174,#1181,#1179,.T.) ;
#1187=EDGE_CURVE('',#1181,#1165,#1186,.T.) ;
#1208=EDGE_CURVE('',#1205,#1207,#1203,.T.) ;
#1213=EDGE_CURVE('',#1205,#1174,#1212,.T.) ;
#1218=EDGE_CURVE('',#1207,#1167,#1217,.T.) ;
#1237=EDGE_CURVE('',#1207,#1236,#1234,.F.) ;
#1244=EDGE_CURVE('',#1243,#1236,#1241,.T.) ;
#1249=EDGE_CURVE('',#1243,#1205,#1248,.T.) ;
#1270=EDGE_CURVE('',#1267,#1269,#1265,.F.) ;
#1275=EDGE_CURVE('',#976,#1267,#1274,.T.) ;
#1280=EDGE_CURVE('',#852,#994,#1279,.T.) ;
#1285=EDGE_CURVE('',#1165,#767,#1284,.T.) ;
#1290=EDGE_CURVE('',#670,#1181,#1289,.F.) ;
#1295=EDGE_CURVE('',#1269,#952,#1294,.F.) ;
#1323=EDGE_CURVE('',#1269,#1322,#1320,.T.) ;
#1330=EDGE_CURVE('',#1329,#1322,#1327,.F.) ;
#1335=EDGE_CURVE('',#1329,#1267,#1334,.F.) ;
#1354=EDGE_CURVE('',#1141,#1353,#1351,.T.) ;
#1359=EDGE_CURVE('',#1243,#639,#1358,.T.) ;
#1364=EDGE_CURVE('',#701,#1236,#1363,.F.) ;
#1369=EDGE_CURVE('',#894,#1056,#1368,.T.) ;
#1376=EDGE_CURVE('',#1375,#1049,#1373,.F.) ;
#1381=EDGE_CURVE('',#1375,#1353,#1380,.F.) ;
#1409=EDGE_CURVE('',#1408,#1329,#1406,.T.) ;
#1416=EDGE_CURVE('',#1415,#1322,#1413,.T.) ;
#1421=EDGE_CURVE('',#1408,#1415,#1420,.F.) ;
#1438=EDGE_CURVE('',#1415,#1353,#1437,.T.) ;
#1443=EDGE_CURVE('',#1375,#1408,#1442,.F.) ;
#1474=EDGE_CURVE('',#1471,#1473,#1469,.T.) ;
#1479=EDGE_CURVE('',#1473,#1471,#1478,.T.) ;
#1508=EDGE_CURVE('',#1505,#1507,#1503,.T.) ;
#1513=EDGE_CURVE('',#1507,#1505,#1512,.T.) ;
#1537=EDGE_CURVE('',#1534,#1536,#1532,.T.) ;
#1542=EDGE_CURVE('',#1536,#1534,#1541,.T.) ;
#1566=EDGE_CURVE('',#1563,#1565,#1561,.T.) ;
#1571=EDGE_CURVE('',#1565,#1563,#1570,.T.) ;
#1586=EDGE_CURVE('',#1505,#1471,#1585,.F.) ;
#1591=EDGE_CURVE('',#1507,#1473,#1590,.F.) ;
#1615=EDGE_CURVE('',#1534,#1563,#1614,.F.) ;
#1620=EDGE_CURVE('',#1536,#1565,#1619,.F.) ;
#1648=EDGE_CURVE('',#1645,#1647,#1643,.T.) ;
#1655=EDGE_CURVE('',#1645,#1654,#1652,.F.) ;
#1662=EDGE_CURVE('',#1654,#1661,#1659,.T.) ;
#1667=EDGE_CURVE('',#1647,#1661,#1666,.F.) ;
#1697=EDGE_CURVE('',#1694,#1696,#1692,.T.) ;
#1702=EDGE_CURVE('',#1654,#1694,#1701,.T.) ;
#1707=EDGE_CURVE('',#1696,#1645,#1706,.F.) ;
#1729=EDGE_CURVE('',#1696,#1728,#1720,.T.) ;
#1736=EDGE_CURVE('',#1735,#1728,#1733,.T.) ;
#1743=EDGE_CURVE('',#1735,#1694,#1737,.T.) ;
#1772=EDGE_CURVE('',#1728,#1771,#1769,.T.) ;
#1779=EDGE_CURVE('',#1778,#1647,#1776,.F.) ;
#1793=EDGE_CURVE('',#1771,#1778,#1780,.F.) ;
#1814=EDGE_CURVE('',#1661,#1813,#1811,.T.) ;
#1819=EDGE_CURVE('',#1813,#1778,#1818,.F.) ;
#1838=EDGE_CURVE('',#1735,#1837,#1835,.T.) ;
#1843=EDGE_CURVE('',#1837,#1771,#1842,.F.) ;
#1867=EDGE_CURVE('',#1813,#1837,#1851,.F.) ;
#84=EDGE_LOOP('',(#85,#86,#87,#88)) ;
#101=EDGE_LOOP('',(#102,#103,#104,#105)) ;
#113=EDGE_LOOP('',(#114,#115)) ;
#151=EDGE_LOOP('',(#152,#153,#154,#155)) ;
#168=EDGE_LOOP('',(#169,#170,#171,#172)) ;
#175=EDGE_LOOP('',(#176,#177)) ;
#213=EDGE_LOOP('',(#214,#215,#216,#217)) ;
#230=EDGE_LOOP('',(#231,#232,#233,#234)) ;
#237=EDGE_LOOP('',(#238,#239)) ;
#275=EDGE_LOOP('',(#276,#277,#278,#279)) ;
#281=EDGE_LOOP('',(#282,#283)) ;
#285=EDGE_LOOP('',(#286,#287)) ;
#289=EDGE_LOOP('',(#290,#291)) ;
#327=EDGE_LOOP('',(#328,#329,#330,#331)) ;
#349=EDGE_LOOP('',(#350,#351,#352,#353)) ;
#375=EDGE_LOOP('',(#376,#377)) ;
#379=EDGE_LOOP('',(#380,#381)) ;
#408=EDGE_LOOP('',(#409,#410,#411,#412)) ;
#420=EDGE_LOOP('',(#421,#422,#423,#424)) ;
#451=EDGE_LOOP('',(#452,#453,#454,#455)) ;
#468=EDGE_LOOP('',(#469,#470,#471,#472)) ;
#499=EDGE_LOOP('',(#500,#501,#502,#503)) ;
#511=EDGE_LOOP('',(#512,#513,#514,#515)) ;
#523=EDGE_LOOP('',(#524,#525)) ;
#561=EDGE_LOOP('',(#562,#563,#564,#565)) ;
#578=EDGE_LOOP('',(#579,#580,#581,#582)) ;
#618=EDGE_LOOP('',(#619,#620,#621,#622)) ;
#624=EDGE_LOOP('',(#625,#626)) ;
#653=EDGE_LOOP('',(#654,#655,#656,#657)) ;
#684=EDGE_LOOP('',(#685,#686,#687,#688)) ;
#724=EDGE_LOOP('',(#725,#726,#727,#728)) ;
#750=EDGE_LOOP('',(#751,#752,#753,#754)) ;
#781=EDGE_LOOP('',(#782,#783,#784,#785)) ;
#803=EDGE_LOOP('',(#804,#805,#806)) ;
#819=EDGE_LOOP('',(#820,#821,#822,#823)) ;
#836=EDGE_LOOP('',(#837,#838,#839)) ;
#877=EDGE_LOOP('',(#878,#879,#880,#881)) ;
#919=EDGE_LOOP('',(#920,#921,#922,#923)) ;
#959=EDGE_LOOP('',(#960,#961,#962,#963)) ;
#1001=EDGE_LOOP('',(#1002,#1003,#1004,#1005)) ;
#1032=EDGE_LOOP('',(#1033,#1034,#1035,#1036)) ;
#1065=EDGE_LOOP('',(#1066,#1067,#1068,#1069)) ;
#1091=EDGE_LOOP('',(#1092,#1093,#1094,#1095)) ;
#1120=EDGE_LOOP('',(#1121,#1122,#1123,#1124,#1125,#1126,#1127,#1128)) ;
#1148=EDGE_LOOP('',(#1149,#1150,#1151,#1152)) ;
#1188=EDGE_LOOP('',(#1189,#1190,#1191,#1192)) ;
#1219=EDGE_LOOP('',(#1220,#1221,#1222,#1223)) ;
#1250=EDGE_LOOP('',(#1251,#1252,#1253,#1254)) ;
#1296=EDGE_LOOP('',(#1297,#1298,#1299,#1300,#1301,#1302,#1303,#1304,#1305,#1306,#1307,#1308,#1309)) ;
#1336=EDGE_LOOP('',(#1337,#1338,#1339,#1340)) ;
#1382=EDGE_LOOP('',(#1383,#1384,#1385,#1386,#1387,#1388,#1389,#1390,#1391,#1392,#1393,#1394,#1395)) ;
#1422=EDGE_LOOP('',(#1423,#1424,#1425,#1426)) ;
#1444=EDGE_LOOP('',(#1445,#1446,#1447,#1448)) ;
#1456=EDGE_LOOP('',(#1457,#1458,#1459,#1460,#1461,#1462,#1463,#1464)) ;
#1480=EDGE_LOOP('',(#1481,#1482)) ;
#1490=EDGE_LOOP('',(#1491,#1492,#1493,#1494,#1495,#1496,#1497,#1498)) ;
#1514=EDGE_LOOP('',(#1515,#1516)) ;
#1519=EDGE_LOOP('',(#1520,#1521,#1522,#1523,#1524,#1525,#1526,#1527)) ;
#1543=EDGE_LOOP('',(#1544,#1545)) ;
#1548=EDGE_LOOP('',(#1549,#1550,#1551,#1552,#1553,#1554,#1555,#1556)) ;
#1572=EDGE_LOOP('',(#1573,#1574)) ;
#1592=EDGE_LOOP('',(#1593,#1594,#1595,#1596)) ;
#1599=EDGE_LOOP('',(#1600,#1601,#1602,#1603)) ;
#1621=EDGE_LOOP('',(#1622,#1623,#1624,#1625)) ;
#1628=EDGE_LOOP('',(#1629,#1630,#1631,#1632)) ;
#1668=EDGE_LOOP('',(#1669,#1670,#1671,#1672)) ;
#1675=EDGE_LOOP('',(#1676,#1677)) ;
#1679=EDGE_LOOP('',(#1680,#1681)) ;
#1708=EDGE_LOOP('',(#1709,#1710,#1711,#1712)) ;
#1744=EDGE_LOOP('',(#1745,#1746,#1747,#1748)) ;
#1756=EDGE_LOOP('',(#1757,#1758,#1759,#1760,#1761,#1762,#1763,#1764)) ;
#1794=EDGE_LOOP('',(#1795,#1796,#1797,#1798,#1799,#1800)) ;
#1820=EDGE_LOOP('',(#1821,#1822,#1823,#1824)) ;
#1844=EDGE_LOOP('',(#1845,#1846,#1847,#1848)) ;
#1868=EDGE_LOOP('',(#1869,#1870,#1871,#1872,#1873,#1874)) ;
#1882=EDGE_LOOP('',(#1883,#1884,#1885,#1886)) ;
#89=FACE_OUTER_BOUND('',#84,.T.) ;
#106=FACE_OUTER_BOUND('',#101,.T.) ;
#116=FACE_OUTER_BOUND('',#113,.T.) ;
#156=FACE_OUTER_BOUND('',#151,.T.) ;
#173=FACE_OUTER_BOUND('',#168,.T.) ;
#178=FACE_OUTER_BOUND('',#175,.T.) ;
#218=FACE_OUTER_BOUND('',#213,.T.) ;
#235=FACE_OUTER_BOUND('',#230,.T.) ;
#240=FACE_OUTER_BOUND('',#237,.T.) ;
#280=FACE_OUTER_BOUND('',#275,.T.) ;
#332=FACE_OUTER_BOUND('',#327,.T.) ;
#354=FACE_OUTER_BOUND('',#349,.T.) ;
#378=FACE_OUTER_BOUND('',#375,.T.) ;
#413=FACE_OUTER_BOUND('',#408,.T.) ;
#425=FACE_OUTER_BOUND('',#420,.T.) ;
#456=FACE_OUTER_BOUND('',#451,.T.) ;
#473=FACE_OUTER_BOUND('',#468,.T.) ;
#504=FACE_OUTER_BOUND('',#499,.T.) ;
#516=FACE_OUTER_BOUND('',#511,.T.) ;
#526=FACE_OUTER_BOUND('',#523,.T.) ;
#566=FACE_OUTER_BOUND('',#561,.T.) ;
#583=FACE_OUTER_BOUND('',#578,.T.) ;
#623=FACE_OUTER_BOUND('',#618,.T.) ;
#658=FACE_OUTER_BOUND('',#653,.T.) ;
#689=FACE_OUTER_BOUND('',#684,.T.) ;
#729=FACE_OUTER_BOUND('',#724,.T.) ;
#755=FACE_OUTER_BOUND('',#750,.T.) ;
#786=FACE_OUTER_BOUND('',#781,.T.) ;
#807=FACE_OUTER_BOUND('',#803,.T.) ;
#824=FACE_OUTER_BOUND('',#819,.T.) ;
#840=FACE_OUTER_BOUND('',#836,.T.) ;
#882=FACE_OUTER_BOUND('',#877,.T.) ;
#924=FACE_OUTER_BOUND('',#919,.T.) ;
#964=FACE_OUTER_BOUND('',#959,.T.) ;
#1006=FACE_OUTER_BOUND('',#1001,.T.) ;
#1037=FACE_OUTER_BOUND('',#1032,.T.) ;
#1070=FACE_OUTER_BOUND('',#1065,.T.) ;
#1096=FACE_OUTER_BOUND('',#1091,.T.) ;
#1129=FACE_OUTER_BOUND('',#1120,.T.) ;
#1153=FACE_OUTER_BOUND('',#1148,.T.) ;
#1193=FACE_OUTER_BOUND('',#1188,.T.) ;
#1224=FACE_OUTER_BOUND('',#1219,.T.) ;
#1255=FACE_OUTER_BOUND('',#1250,.T.) ;
#1310=FACE_OUTER_BOUND('',#1296,.T.) ;
#1341=FACE_OUTER_BOUND('',#1336,.T.) ;
#1396=FACE_OUTER_BOUND('',#1382,.T.) ;
#1427=FACE_OUTER_BOUND('',#1422,.T.) ;
#1449=FACE_OUTER_BOUND('',#1444,.T.) ;
#1465=FACE_OUTER_BOUND('',#1456,.T.) ;
#1499=FACE_OUTER_BOUND('',#1490,.T.) ;
#1528=FACE_OUTER_BOUND('',#1519,.T.) ;
#1557=FACE_OUTER_BOUND('',#1548,.T.) ;
#1597=FACE_OUTER_BOUND('',#1592,.T.) ;
#1604=FACE_OUTER_BOUND('',#1599,.T.) ;
#1626=FACE_OUTER_BOUND('',#1621,.T.) ;
#1633=FACE_OUTER_BOUND('',#1628,.T.) ;
#1673=FACE_OUTER_BOUND('',#1668,.T.) ;
#1678=FACE_OUTER_BOUND('',#1675,.T.) ;
#1713=FACE_OUTER_BOUND('',#1708,.T.) ;
#1749=FACE_OUTER_BOUND('',#1744,.T.) ;
#1765=FACE_OUTER_BOUND('',#1756,.T.) ;
#1825=FACE_OUTER_BOUND('',#1820,.T.) ;
#1849=FACE_OUTER_BOUND('',#1844,.T.) ;
#1875=FACE_OUTER_BOUND('',#1868,.T.) ;
#1887=FACE_OUTER_BOUND('',#1882,.T.) ;
#44=UNCERTAINTY_MEASURE_WITH_UNIT(LENGTH_MEASURE(0.005),#41,'distance_accuracy_value','CONFUSED CURVE UNCERTAINTY') ;
#59=LINE('Line',#56,#58) ;
#75=LINE('Line',#72,#74) ;
#126=LINE('Line',#123,#125) ;
#142=LINE('Line',#139,#141) ;
#188=LINE('Line',#185,#187) ;
#204=LINE('Line',#201,#203) ;
#250=LINE('Line',#247,#249) ;
#259=LINE('Line',#256,#258) ;
#266=LINE('Line',#263,#265) ;
#273=LINE('Line',#270,#272) ;
#302=LINE('Line',#299,#301) ;
#318=LINE('Line',#315,#317) ;
#392=LINE('Line',#389,#391) ;
#406=LINE('Line',#403,#405) ;
#435=LINE('Line',#432,#434) ;
#449=LINE('Line',#446,#448) ;
#483=LINE('Line',#480,#482) ;
#497=LINE('Line',#494,#496) ;
#536=LINE('Line',#533,#535) ;
#552=LINE('Line',#549,#551) ;
#593=LINE('Line',#590,#592) ;
#602=LINE('Line',#599,#601) ;
#609=LINE('Line',#606,#608) ;
#616=LINE('Line',#613,#615) ;
#644=LINE('Line',#641,#643) ;
#682=LINE('Line',#679,#681) ;
#699=LINE('Line',#696,#698) ;
#715=LINE('Line',#712,#714) ;
#734=LINE('Line',#731,#733) ;
#741=LINE('Line',#738,#740) ;
#748=LINE('Line',#745,#747) ;
#772=LINE('Line',#769,#771) ;
#850=LINE('Line',#847,#849) ;
#892=LINE('Line',#889,#891) ;
#943=LINE('Line',#940,#942) ;
#957=LINE('Line',#954,#956) ;
#983=LINE('Line',#980,#982) ;
#999=LINE('Line',#996,#998) ;
#1016=LINE('Line',#1013,#1015) ;
#1025=LINE('Line',#1022,#1024) ;
#1030=LINE('Line',#1027,#1029) ;
#1054=LINE('Line',#1051,#1053) ;
#1075=LINE('Line',#1072,#1074) ;
#1084=LINE('Line',#1081,#1083) ;
#1089=LINE('Line',#1086,#1088) ;
#1113=LINE('Line',#1110,#1112) ;
#1118=LINE('Line',#1115,#1117) ;
#1139=LINE('Line',#1136,#1138) ;
#1172=LINE('Line',#1169,#1171) ;
#1186=LINE('Line',#1183,#1185) ;
#1203=LINE('Line',#1200,#1202) ;
#1212=LINE('Line',#1209,#1211) ;
#1217=LINE('Line',#1214,#1216) ;
#1241=LINE('Line',#1238,#1240) ;
#1265=LINE('Line',#1262,#1264) ;
#1274=LINE('Line',#1271,#1273) ;
#1279=LINE('Line',#1276,#1278) ;
#1284=LINE('Line',#1281,#1283) ;
#1289=LINE('Line',#1286,#1288) ;
#1294=LINE('Line',#1291,#1293) ;
#1327=LINE('Line',#1324,#1326) ;
#1351=LINE('Line',#1348,#1350) ;
#1358=LINE('Line',#1355,#1357) ;
#1363=LINE('Line',#1360,#1362) ;
#1368=LINE('Line',#1365,#1367) ;
#1373=LINE('Line',#1370,#1372) ;
#1380=LINE('Line',#1377,#1379) ;
#1406=LINE('Line',#1403,#1405) ;
#1413=LINE('Line',#1410,#1412) ;
#1420=LINE('Line',#1417,#1419) ;
#1585=LINE('Line',#1582,#1584) ;
#1590=LINE('Line',#1587,#1589) ;
#1614=LINE('Line',#1611,#1613) ;
#1619=LINE('Line',#1616,#1618) ;
#1643=LINE('Line',#1640,#1642) ;
#1652=LINE('Line',#1649,#1651) ;
#1659=LINE('Line',#1656,#1658) ;
#1666=LINE('Line',#1663,#1665) ;
#1692=LINE('Line',#1689,#1691) ;
#1701=LINE('Line',#1698,#1700) ;
#1706=LINE('Line',#1703,#1705) ;
#1733=LINE('Line',#1730,#1732) ;
#1769=LINE('Line',#1766,#1768) ;
#1776=LINE('Line',#1773,#1775) ;
#1811=LINE('Line',#1808,#1810) ;
#1818=LINE('Line',#1815,#1817) ;
#1835=LINE('Line',#1832,#1834) ;
#1842=LINE('Line',#1839,#1841) ;
#2=MECHANICAL_CONTEXT(' ',#1,'mechanical') ;
#24=PERSONAL_ADDRESS(' ',' ',' ',' ',' ',' ',' ',' ',' ',' ',' ',' ',(#22),' ') ;
#112=PLANE('',#111) ;
#246=PLANE('',#245) ;
#360=PLANE('',#359) ;
#522=PLANE('',#521) ;
#589=PLANE('',#588) ;
#1012=PLANE('',#1011) ;
#1102=PLANE('',#1101) ;
#1199=PLANE('',#1198) ;
#1261=PLANE('',#1260) ;
#1347=PLANE('',#1346) ;
#1402=PLANE('',#1401) ;
#1455=PLANE('',#1454) ;
#1489=PLANE('',#1488) ;
#1639=PLANE('',#1638) ;
#1688=PLANE('',#1687) ;
#1755=PLANE('',#1754) ;
#1807=PLANE('',#1806) ;
#1831=PLANE('',#1830) ;
#7=PRODUCT_CATEGORY('part',$) ;
#9=PRODUCT_CATEGORY_RELATIONSHIP(' ',' ',#7,#8) ;
#6=PRODUCT_DEFINITION_FORMATION_WITH_SPECIFIED_SOURCE('',' ',#5,.BOUGHT.) ;
#8=PRODUCT_RELATED_PRODUCT_CATEGORY('detail',$,(#5)) ;
#49=SHAPE_DEFINITION_REPRESENTATION(#40,#48) ;
#792=SPHERICAL_SURFACE('',#791,0.5) ;
#830=SPHERICAL_SURFACE('',#829,0.5) ;
#61=VERTEX_POINT('',#60) ;
#63=VERTEX_POINT('',#62) ;
#70=VERTEX_POINT('',#69) ;
#77=VERTEX_POINT('',#76) ;
#128=VERTEX_POINT('',#127) ;
#130=VERTEX_POINT('',#129) ;
#137=VERTEX_POINT('',#136) ;
#144=VERTEX_POINT('',#143) ;
#190=VERTEX_POINT('',#189) ;
#192=VERTEX_POINT('',#191) ;
#199=VERTEX_POINT('',#198) ;
#206=VERTEX_POINT('',#205) ;
#252=VERTEX_POINT('',#251) ;
#254=VERTEX_POINT('',#253) ;
#261=VERTEX_POINT('',#260) ;
#268=VERTEX_POINT('',#267) ;
#304=VERTEX_POINT('',#303) ;
#306=VERTEX_POINT('',#305) ;
#313=VERTEX_POINT('',#312) ;
#320=VERTEX_POINT('',#319) ;
#366=VERTEX_POINT('',#365) ;
#368=VERTEX_POINT('',#367) ;
#394=VERTEX_POINT('',#393) ;
#401=VERTEX_POINT('',#400) ;
#437=VERTEX_POINT('',#436) ;
#444=VERTEX_POINT('',#443) ;
#485=VERTEX_POINT('',#484) ;
#492=VERTEX_POINT('',#491) ;
#538=VERTEX_POINT('',#537) ;
#540=VERTEX_POINT('',#539) ;
#547=VERTEX_POINT('',#546) ;
#554=VERTEX_POINT('',#553) ;
#595=VERTEX_POINT('',#594) ;
#597=VERTEX_POINT('',#596) ;
#604=VERTEX_POINT('',#603) ;
#611=VERTEX_POINT('',#610) ;
#639=VERTEX_POINT('',#638) ;
#646=VERTEX_POINT('',#645) ;
#670=VERTEX_POINT('',#669) ;
#677=VERTEX_POINT('',#676) ;
#701=VERTEX_POINT('',#700) ;
#703=VERTEX_POINT('',#702) ;
#710=VERTEX_POINT('',#709) ;
#717=VERTEX_POINT('',#716) ;
#736=VERTEX_POINT('',#735) ;
#743=VERTEX_POINT('',#742) ;
#767=VERTEX_POINT('',#766) ;
#774=VERTEX_POINT('',#773) ;
#852=VERTEX_POINT('',#851) ;
#894=VERTEX_POINT('',#893) ;
#936=VERTEX_POINT('',#935) ;
#938=VERTEX_POINT('',#937) ;
#945=VERTEX_POINT('',#944) ;
#952=VERTEX_POINT('',#951) ;
#976=VERTEX_POINT('',#975) ;
#978=VERTEX_POINT('',#977) ;
#985=VERTEX_POINT('',#984) ;
#994=VERTEX_POINT('',#993) ;
#1018=VERTEX_POINT('',#1017) ;
#1020=VERTEX_POINT('',#1019) ;
#1049=VERTEX_POINT('',#1048) ;
#1056=VERTEX_POINT('',#1055) ;
#1077=VERTEX_POINT('',#1076) ;
#1079=VERTEX_POINT('',#1078) ;
#1108=VERTEX_POINT('',#1107) ;
#1141=VERTEX_POINT('',#1140) ;
#1165=VERTEX_POINT('',#1164) ;
#1167=VERTEX_POINT('',#1166) ;
#1174=VERTEX_POINT('',#1173) ;
#1181=VERTEX_POINT('',#1180) ;
#1205=VERTEX_POINT('',#1204) ;
#1207=VERTEX_POINT('',#1206) ;
#1236=VERTEX_POINT('',#1235) ;
#1243=VERTEX_POINT('',#1242) ;
#1267=VERTEX_POINT('',#1266) ;
#1269=VERTEX_POINT('',#1268) ;
#1322=VERTEX_POINT('',#1321) ;
#1329=VERTEX_POINT('',#1328) ;
#1353=VERTEX_POINT('',#1352) ;
#1375=VERTEX_POINT('',#1374) ;
#1408=VERTEX_POINT('',#1407) ;
#1415=VERTEX_POINT('',#1414) ;
#1471=VERTEX_POINT('',#1470) ;
#1473=VERTEX_POINT('',#1472) ;
#1505=VERTEX_POINT('',#1504) ;
#1507=VERTEX_POINT('',#1506) ;
#1534=VERTEX_POINT('',#1533) ;
#1536=VERTEX_POINT('',#1535) ;
#1563=VERTEX_POINT('',#1562) ;
#1565=VERTEX_POINT('',#1564) ;
#1645=VERTEX_POINT('',#1644) ;
#1647=VERTEX_POINT('',#1646) ;
#1654=VERTEX_POINT('',#1653) ;
#1661=VERTEX_POINT('',#1660) ;
#1694=VERTEX_POINT('',#1693) ;
#1696=VERTEX_POINT('',#1695) ;
#1728=VERTEX_POINT('',#1727) ;
#1735=VERTEX_POINT('',#1734) ;
#1771=VERTEX_POINT('',#1770) ;
#1778=VERTEX_POINT('',#1777) ;
#1813=VERTEX_POINT('',#1812) ;
#1837=VERTEX_POINT('',#1836) ;
#41=(LENGTH_UNIT()NAMED_UNIT(*)SI_UNIT(.MILLI.,.METRE.)) ;
#42=(NAMED_UNIT(*)PLANE_ANGLE_UNIT()SI_UNIT($,.RADIAN.)) ;
#43=(NAMED_UNIT(*)SI_UNIT($,.STERADIAN.)SOLID_ANGLE_UNIT()) ;
#45=(GEOMETRIC_REPRESENTATION_CONTEXT(3)GLOBAL_UNCERTAINTY_ASSIGNED_CONTEXT((#44))GLOBAL_UNIT_ASSIGNED_CONTEXT((#41,#42,#43))REPRESENTATION_CONTEXT(' ',' ')) ;
ENDSEC;
END-ISO-10303-21;
